<?xml version="1.0" standalone="no"?>
<!DOCTYPE svg PUBLIC "-//W3C//DTD SVG 20010904//EN"
 "http://www.w3.org/TR/2001/REC-SVG-20010904/DTD/svg10.dtd">
<svg version="1.0" xmlns="http://www.w3.org/2000/svg"
 width="558.000000pt" height="558.000000pt" viewBox="0 0 558.000000 558.000000"
 preserveAspectRatio="xMidYMid meet">
<metadata>
Created by potrace 1.11, written by Peter Selinger 2001-2013
</metadata>
<g transform="translate(0.000000,558.000000) scale(0.100000,-0.100000)"
fill="#000000" stroke="none">
<path d="M913 5565 c0 -8 4 -15 9 -15 4 0 8 4 8 9 0 6 -4 12 -8 15 -5 3 -9 -1
-9 -9z"/>
<path d="M987 5567 c-3 -8 1 -14 8 -14 7 0 11 6 8 14 -3 7 -6 13 -8 13 -2 0
-5 -6 -8 -13z"/>
<path d="M1535 5570 c-4 -6 1 -7 11 -3 10 4 15 2 11 -4 -3 -5 0 -10 8 -10 11
0 12 4 4 14 -14 15 -26 17 -34 3z"/>
<path d="M1677 5567 c-3 -8 1 -14 8 -14 7 0 11 6 8 14 -3 7 -6 13 -8 13 -2 0
-5 -6 -8 -13z"/>
<path d="M1755 5569 c-4 -6 -5 -12 -2 -15 2 -3 7 2 10 11 7 17 1 20 -8 4z"/>
<path d="M2015 5570 c-4 -6 1 -7 11 -3 10 4 15 2 11 -4 -3 -5 0 -10 8 -10 11
0 12 4 4 14 -14 15 -26 17 -34 3z"/>
<path d="M2157 5567 c-3 -8 1 -14 8 -14 7 0 11 6 8 14 -3 7 -6 13 -8 13 -2 0
-5 -6 -8 -13z"/>
<path d="M2637 5567 c-3 -8 1 -14 8 -14 7 0 11 6 8 14 -3 7 -6 13 -8 13 -2 0
-5 -6 -8 -13z"/>
<path d="M2907 5567 c-3 -8 1 -14 8 -14 7 0 11 6 8 14 -3 7 -6 13 -8 13 -2 0
-5 -6 -8 -13z"/>
<path d="M3627 5567 c-3 -8 1 -14 8 -14 7 0 11 6 8 14 -3 7 -6 13 -8 13 -2 0
-5 -6 -8 -13z"/>
<path d="M3751 5567 c-8 -10 -7 -14 4 -14 8 0 11 5 8 10 -4 6 1 8 11 4 10 -4
15 -3 11 3 -8 14 -20 12 -34 -3z"/>
<path d="M4235 5571 c-3 -5 0 -13 6 -17 8 -5 9 -3 4 6 -6 10 -4 12 9 7 10 -4
15 -3 11 3 -8 13 -22 13 -30 1z"/>
<path d="M2710 5563 c0 -5 5 -15 10 -23 7 -12 9 -10 7 8 -1 19 -17 33 -17 15z"/>
<path d="M2835 5553 c1 -10 -1 -23 -6 -28 -5 -7 -1 -11 11 -11 13 0 16 5 11
16 -5 8 -6 21 -4 28 3 6 0 12 -5 12 -6 0 -9 -8 -7 -17z"/>
<path d="M3313 5558 c2 -7 0 -21 -5 -30 -6 -13 -5 -16 5 -12 14 5 18 54 4 54
-5 0 -7 -6 -4 -12z"/>
<path d="M3555 5543 c0 -15 6 -28 13 -29 7 -1 8 0 3 2 -5 3 -7 16 -5 30 2 13
0 24 -4 24 -5 0 -8 -12 -7 -27z"/>
<path d="M1054 5540 c0 -13 5 -16 16 -11 8 5 21 6 28 4 6 -3 12 0 12 5 0 6 -8
9 -17 7 -10 -1 -23 1 -28 6 -7 5 -11 1 -11 -11z"/>
<path d="M1141 5544 c0 -11 3 -14 6 -6 3 7 2 16 -1 19 -3 4 -6 -2 -5 -13z"/>
<path d="M1171 5544 c0 -11 3 -14 6 -6 3 7 2 16 -1 19 -3 4 -6 -2 -5 -13z"/>
<path d="M1255 5551 c-3 -6 -14 -8 -25 -6 -11 2 -20 -1 -20 -6 0 -6 6 -9 13
-6 6 2 19 1 27 -4 12 -5 16 -2 16 12 0 21 -2 23 -11 10z"/>
<path d="M1294 5541 c0 -12 6 -17 18 -13 10 2 18 9 18 15 0 6 -3 7 -7 4 -3 -4
-11 -3 -17 3 -8 6 -12 3 -12 -9z"/>
<path d="M1381 5544 c0 -11 3 -14 6 -6 3 7 2 16 -1 19 -3 4 -6 -2 -5 -13z"/>
<path d="M1413 5545 c0 -7 6 -11 14 -8 7 3 13 6 13 8 0 2 -6 5 -13 8 -8 3 -14
-1 -14 -8z"/>
<path d="M1491 5551 c-8 -5 -20 -7 -28 -4 -7 3 -13 1 -13 -5 0 -6 8 -9 18 -7
9 1 22 -1 27 -6 7 -5 11 0 11 12 0 10 0 19 -1 19 0 0 -6 -4 -14 -9z"/>
<path d="M1634 5543 c2 -10 -2 -22 -8 -26 -7 -6 -6 -7 3 -5 16 5 24 35 11 43
-5 3 -7 -3 -6 -12z"/>
<path d="M1774 5539 c0 -12 4 -15 12 -9 6 6 14 7 17 3 4 -3 7 -2 7 4 0 6 -8
13 -18 15 -12 4 -18 -1 -18 -13z"/>
<path d="M1861 5544 c0 -11 3 -14 6 -6 3 7 2 16 -1 19 -3 4 -6 -2 -5 -13z"/>
<path d="M1891 5544 c0 -11 3 -14 6 -6 3 7 2 16 -1 19 -3 4 -6 -2 -5 -13z"/>
<path d="M1971 5551 c-8 -5 -20 -7 -28 -4 -7 3 -13 1 -13 -5 0 -6 8 -9 18 -7
9 1 22 -1 27 -6 7 -5 11 0 11 12 0 10 0 19 -1 19 0 0 -6 -4 -14 -9z"/>
<path d="M2113 5545 c0 -8 4 -12 9 -9 5 3 6 10 3 15 -9 13 -12 11 -12 -6z"/>
<path d="M2254 5540 c0 -12 4 -16 11 -11 5 5 18 7 28 6 9 -2 17 1 17 7 0 5 -6
8 -12 5 -7 -2 -20 -1 -28 4 -11 5 -16 2 -16 -11z"/>
<path d="M2332 5551 c-11 -7 -11 -9 0 -14 9 -3 15 1 15 9 0 8 -1 14 -1 14 -1
0 -7 -4 -14 -9z"/>
<path d="M2455 5551 c-3 -6 -14 -8 -25 -6 -11 2 -20 -1 -20 -6 0 -6 6 -9 13
-6 6 2 19 1 27 -4 12 -5 16 -2 16 12 0 21 -2 23 -11 10z"/>
<path d="M2593 5545 c0 -8 4 -12 9 -9 5 3 6 10 3 15 -9 13 -12 11 -12 -6z"/>
<path d="M2758 5553 c7 -3 16 -2 19 1 4 3 -2 6 -13 5 -11 0 -14 -3 -6 -6z"/>
<path d="M2955 5549 c-4 -6 -5 -12 -2 -15 2 -3 7 2 10 11 7 17 1 20 -8 4z"/>
<path d="M3093 5545 c0 -8 5 -11 10 -8 6 4 8 0 4 -9 -6 -17 16 -19 30 -3 5 4
2 5 -6 0 -11 -6 -13 -4 -7 11 4 10 4 15 0 11 -4 -4 -12 -2 -19 3 -8 7 -12 5
-12 -5z"/>
<path d="M3180 5551 c0 -6 -9 -8 -20 -6 -11 2 -18 0 -15 -5 7 -12 38 -6 43 8
2 7 1 12 -2 12 -3 0 -6 -4 -6 -9z"/>
<path d="M3238 5553 c7 -3 16 -2 19 1 4 3 -2 6 -13 5 -11 0 -14 -3 -6 -6z"/>
<path d="M3358 5553 c7 -3 16 -2 19 1 4 3 -2 6 -13 5 -11 0 -14 -3 -6 -6z"/>
<path d="M3508 5553 c7 -3 16 -2 19 1 4 3 -2 6 -13 5 -11 0 -14 -3 -6 -6z"/>
<path d="M3675 5549 c-4 -6 -5 -12 -2 -15 2 -3 7 2 10 11 7 17 1 20 -8 4z"/>
<path d="M3934 5540 c0 -12 4 -16 11 -11 5 5 18 7 28 6 9 -2 17 1 17 7 0 5 -6
8 -12 5 -7 -2 -20 -1 -28 4 -11 5 -16 2 -16 -11z"/>
<path d="M4012 5551 c-11 -7 -11 -9 0 -14 9 -3 15 1 15 9 0 8 -1 14 -1 14 -1
0 -7 -4 -14 -9z"/>
<path d="M4051 5544 c0 -11 3 -14 6 -6 3 7 2 16 -1 19 -3 4 -6 -2 -5 -13z"/>
<path d="M4131 5551 c-8 -5 -20 -7 -28 -4 -7 3 -13 1 -13 -5 0 -6 8 -9 18 -7
9 1 22 -1 27 -6 7 -5 11 0 11 12 0 10 0 19 -1 19 0 0 -6 -4 -14 -9z"/>
<path d="M4533 5545 c0 -8 5 -11 10 -8 6 4 8 0 4 -9 -6 -17 16 -19 30 -3 5 4
2 5 -6 0 -11 -6 -13 -4 -7 11 4 10 4 15 0 11 -4 -4 -12 -2 -19 3 -8 7 -12 5
-12 -5z"/>
<path d="M4620 5551 c0 -6 -9 -8 -20 -6 -11 2 -18 0 -15 -5 7 -12 38 -6 43 8
2 7 1 12 -2 12 -3 0 -6 -4 -6 -9z"/>
<path d="M2076 5538 c3 -5 10 -6 15 -3 13 9 11 12 -6 12 -8 0 -12 -4 -9 -9z"/>
<path d="M2556 5538 c3 -5 10 -6 15 -3 13 9 11 12 -6 12 -8 0 -12 -4 -9 -9z"/>
<path d="M2973 5537 c-3 -4 -2 -11 1 -14 3 -4 6 -2 6 4 0 6 14 9 30 8 17 -1
32 0 34 4 3 4 -11 7 -30 7 -20 0 -38 -4 -41 -9z"/>
<path d="M3199 5543 c0 -5 -2 -16 -4 -26 -2 -11 -1 -16 3 -13 8 8 14 46 7 46
-3 0 -5 -3 -6 -7z"/>
<path d="M3426 5542 c-3 -5 1 -9 9 -9 8 0 15 4 15 9 0 4 -4 8 -9 8 -6 0 -12
-4 -15 -8z"/>
<path d="M3599 5548 c-6 -22 -5 -39 3 -45 6 -3 8 -1 4 5 -3 5 0 13 6 15 10 4
10 6 0 6 -7 1 -10 6 -7 11 3 6 4 10 1 10 -3 0 -6 -1 -7 -2z"/>
<path d="M3694 5538 c-3 -5 -3 -12 0 -15 3 -4 6 -1 6 5 0 6 10 9 21 7 12 -3
19 -1 15 2 -11 11 -35 12 -42 1z"/>
<path d="M3815 5539 c-3 -4 2 -6 10 -5 21 3 28 13 10 13 -9 0 -18 -4 -20 -8z"/>
<path d="M3866 5538 c3 -5 10 -6 15 -3 13 9 11 12 -6 12 -8 0 -12 -4 -9 -9z"/>
<path d="M4174 5538 c-3 -5 -3 -12 0 -15 3 -4 6 -2 6 4 0 6 14 9 30 8 17 -1
28 0 25 3 -10 10 -55 10 -61 0z"/>
<path d="M4295 5539 c-3 -4 2 -6 10 -5 21 3 28 13 10 13 -9 0 -18 -4 -20 -8z"/>
<path d="M4416 5533 c-4 -10 -1 -11 12 -5 9 5 23 7 30 5 6 -3 12 -1 12 4 0 14
-49 10 -54 -4z"/>
<path d="M912 5527 c-8 -10 -6 -13 7 -13 11 0 17 6 14 13 -3 7 -6 13 -8 13 -1
0 -7 -6 -13 -13z"/>
<path d="M959 5528 c-5 -18 -6 -38 -1 -34 7 8 12 36 6 36 -2 0 -4 -1 -5 -2z"/>
<path d="M988 5523 c7 -3 16 -2 19 1 4 3 -2 6 -13 5 -11 0 -14 -3 -6 -6z"/>
<path d="M1516 5513 c-6 -14 -5 -15 5 -6 7 7 10 15 7 18 -3 3 -9 -2 -12 -12z"/>
<path d="M1587 5513 c4 -10 2 -14 -4 -10 -5 3 -10 0 -10 -8 0 -13 4 -12 19 2
22 19 22 19 4 26 -11 4 -13 1 -9 -10z"/>
<path d="M1711 5514 c6 -7 7 -19 3 -26 -6 -11 -5 -11 8 0 13 10 17 10 21 0 3
-7 4 -3 4 8 -1 15 -6 20 -16 16 -8 -3 -12 -1 -8 5 3 5 0 10 -8 10 -11 0 -12
-4 -4 -13z"/>
<path d="M1996 5513 c-6 -14 -5 -15 5 -6 7 7 10 15 7 18 -3 3 -9 -2 -12 -12z"/>
<path d="M2067 5512 c4 -9 2 -13 -4 -9 -5 3 -10 0 -10 -8 0 -12 4 -12 21 2 12
10 22 18 24 19 1 1 -6 4 -17 7 -15 3 -18 1 -14 -11z"/>
<path d="M2316 5522 c-3 -5 1 -9 9 -9 8 0 12 4 9 9 -3 4 -7 8 -9 8 -2 0 -6 -4
-9 -8z"/>
<path d="M2547 5512 c4 -9 2 -13 -4 -9 -5 3 -10 0 -10 -8 0 -12 4 -12 21 2 12
10 22 18 24 19 1 1 -6 4 -17 7 -15 3 -18 1 -14 -11z"/>
<path d="M2679 5528 c-5 -17 -4 -50 3 -54 5 -3 8 -2 7 3 -3 20 2 27 11 13 7
-12 9 -10 8 7 -2 14 -7 19 -17 15 -9 -3 -12 -1 -7 6 4 7 5 12 2 12 -3 0 -6 -1
-7 -2z"/>
<path d="M2758 5511 c5 -13 3 -14 -9 -4 -13 10 -16 10 -16 -1 0 -18 27 -14 38
6 5 10 4 15 -5 15 -9 0 -12 -7 -8 -16z"/>
<path d="M2875 5521 c-3 -5 -2 -12 3 -15 5 -3 9 1 9 9 0 17 -3 19 -12 6z"/>
<path d="M3238 5523 c7 -3 16 -2 19 1 4 3 -2 6 -13 5 -11 0 -14 -3 -6 -6z"/>
<path d="M3390 5515 c5 -7 7 -15 3 -19 -4 -4 1 -4 11 0 13 5 17 4 12 -4 -5 -8
-1 -10 10 -5 11 4 13 8 6 11 -7 2 -10 8 -7 13 4 5 -2 6 -11 2 -10 -4 -15 -2
-11 4 3 5 0 10 -8 10 -10 0 -12 -4 -5 -12z"/>
<path d="M3477 5513 c3 -7 6 -13 8 -13 2 0 5 6 8 13 3 8 -1 14 -8 14 -7 0 -11
-6 -8 -14z"/>
<path d="M3835 5520 c-16 -7 -17 -9 -3 -9 9 -1 20 4 23 9 7 11 7 11 -20 0z"/>
<path d="M4315 5520 c-11 -5 -14 -9 -7 -9 8 -1 10 -6 6 -13 -4 -7 -4 -10 1 -6
4 4 13 3 20 -2 8 -7 12 -5 12 5 0 8 -5 11 -10 8 -6 -4 -8 0 -4 10 3 10 5 17 4
16 -1 0 -11 -4 -22 -9z"/>
<path d="M2195 5500 c2 -27 10 -33 12 -10 1 11 -2 22 -6 24 -4 3 -7 -4 -6 -14z"/>
<path d="M2222 5500 c0 -14 2 -19 5 -12 2 6 2 18 0 25 -3 6 -5 1 -5 -13z"/>
<path d="M3074 5509 c-3 -6 -2 -15 3 -20 5 -5 9 -1 9 11 0 23 -2 24 -12 9z"/>
<path d="M3454 5506 c1 -8 5 -18 8 -22 4 -3 5 1 4 10 -1 8 -5 18 -8 22 -4 3
-5 -1 -4 -10z"/>
<path d="M4650 5511 c0 -7 -4 -10 -8 -7 -4 2 -9 -4 -9 -15 -1 -10 3 -19 9 -19
6 0 8 3 5 7 -4 3 -2 12 5 20 6 7 8 16 4 20 -3 3 -6 1 -6 -6z"/>
<path d="M1046 5502 c-3 -5 1 -9 9 -9 8 0 12 4 9 9 -3 4 -7 8 -9 8 -2 0 -6 -4
-9 -8z"/>
<path d="M1119 5493 c-13 -16 -12 -17 4 -4 16 13 21 21 13 21 -2 0 -10 -8 -17
-17z"/>
<path d="M1427 5499 c7 -7 15 -10 18 -7 3 3 -2 9 -12 12 -14 6 -15 5 -6 -5z"/>
<path d="M1871 5505 c4 -3 19 -8 35 -11 16 -3 26 -2 23 1 -4 3 -19 8 -35 11
-16 3 -26 2 -23 -1z"/>
<path d="M2352 5504 c3 -3 12 -6 20 -8 7 -1 20 -5 28 -10 12 -7 13 -6 3 4 -7
8 -23 15 -35 17 -12 2 -19 1 -16 -3z"/>
<path d="M2966 5501 c-3 -4 6 -7 19 -7 14 0 22 2 19 5 -8 8 -34 10 -38 2z"/>
<path d="M3547 5499 c7 -7 15 -10 18 -7 3 3 -2 9 -12 12 -14 6 -15 5 -6 -5z"/>
<path d="M3693 5494 c0 -11 3 -11 16 -1 12 10 14 9 9 -4 -4 -9 -1 -16 8 -16 9
0 10 5 5 15 -11 20 -38 24 -38 6z"/>
<path d="M3765 5500 c-3 -6 1 -7 9 -4 18 7 21 14 7 14 -6 0 -13 -4 -16 -10z"/>
<path d="M3846 5501 c-19 -7 -19 -8 0 -13 13 -3 21 0 21 8 0 8 -1 14 -1 13 -1
0 -10 -4 -20 -8z"/>
<path d="M3971 5494 c0 -11 3 -14 6 -6 3 7 2 16 -1 19 -3 4 -6 -2 -5 -13z"/>
<path d="M4010 5498 c0 -11 12 -10 30 2 12 7 10 9 -8 7 -12 0 -22 -5 -22 -9z"/>
<path d="M4173 5494 c0 -11 3 -11 16 -1 12 10 14 9 9 -4 -4 -9 -1 -16 8 -16 9
0 10 5 5 15 -11 20 -38 24 -38 6z"/>
<path d="M4477 5491 c-10 -12 -9 -13 3 -6 8 5 21 10 28 11 24 4 25 13 3 11
-12 -1 -28 -8 -34 -16z"/>
<path d="M1227 5487 c-3 -8 1 -14 8 -14 7 0 11 6 8 14 -3 7 -6 13 -8 13 -2 0
-5 -6 -8 -13z"/>
<path d="M1353 5485 c0 -8 4 -12 9 -9 5 3 6 10 3 15 -9 13 -12 11 -12 -6z"/>
<path d="M1834 5486 c1 -8 5 -18 8 -22 4 -3 5 1 4 10 -1 8 -5 18 -8 22 -4 3
-5 -1 -4 -10z"/>
<path d="M2315 5491 c3 -5 -1 -12 -7 -14 -10 -4 -10 -6 0 -6 7 -1 11 -5 8 -9
-3 -5 1 -9 9 -9 11 0 12 4 4 13 -7 8 -6 13 3 16 8 3 6 7 -6 11 -9 4 -15 3 -11
-2z"/>
<path d="M3120 5489 c0 -5 -4 -7 -10 -4 -6 4 -7 -1 -3 -11 4 -10 2 -15 -4 -11
-5 3 -10 0 -10 -8 0 -10 4 -12 12 -5 7 5 15 7 19 3 4 -4 4 1 0 11 -5 13 -4 17
4 12 8 -5 10 -2 6 8 -7 18 -14 21 -14 5z"/>
<path d="M4552 5491 c-11 -6 -9 -9 6 -13 15 -4 19 -2 15 8 -6 16 -4 16 -21 5z"/>
<path d="M909 5484 c6 -3 7 -12 4 -20 -3 -8 -1 -14 5 -14 14 0 8 33 -7 36 -6
1 -7 0 -2 -2z"/>
<path d="M1150 5474 c6 -6 7 -14 3 -17 -3 -4 -2 -7 4 -7 6 0 13 8 15 18 4 12
-1 18 -13 18 -12 0 -15 -4 -9 -12z"/>
<path d="M1389 5470 c5 -8 6 -21 4 -27 -3 -7 0 -13 5 -13 6 0 9 8 7 18 -1 9 1
22 6 27 5 7 1 11 -11 11 -13 0 -16 -5 -11 -16z"/>
<path d="M1596 5481 c-3 -5 2 -15 12 -22 15 -13 16 -12 4 3 -10 13 -10 17 0
21 9 4 9 6 1 6 -6 1 -14 -3 -17 -8z"/>
<path d="M1869 5484 c5 -3 7 -16 5 -30 -2 -13 0 -24 4 -24 14 0 8 53 -6 56 -7
1 -8 0 -3 -2z"/>
<path d="M2075 5481 c-3 -5 -2 -12 3 -15 5 -3 9 1 9 9 0 17 -3 19 -12 6z"/>
<path d="M2109 5484 c5 -3 7 -16 5 -30 -2 -13 0 -24 4 -24 14 0 8 53 -6 56 -7
1 -8 0 -3 -2z"/>
<path d="M2514 5468 c2 -15 0 -29 -5 -32 -5 -2 -4 -3 2 -2 15 3 20 29 8 47 -7
10 -8 6 -5 -13z"/>
<path d="M2555 5481 c-3 -5 -2 -12 3 -15 5 -3 9 1 9 9 0 17 -3 19 -12 6z"/>
<path d="M2586 5483 c6 -4 10 -16 8 -26 -1 -9 1 -15 6 -12 13 8 5 38 -11 43
-9 2 -10 1 -3 -5z"/>
<path d="M3347 5473 c5 -12 3 -14 -8 -8 -8 5 -11 4 -6 0 4 -5 14 -10 22 -11
12 -2 12 2 5 17 -13 23 -22 25 -13 2z"/>
<path d="M3479 5480 c-4 -34 -3 -44 9 -46 7 -1 8 0 3 2 -5 3 -7 16 -5 30 2 13
2 24 -1 24 -3 0 -6 -4 -6 -10z"/>
<path d="M3790 5474 c6 -6 7 -14 3 -17 -3 -4 -2 -7 4 -7 6 0 13 8 15 18 4 12
-1 18 -13 18 -12 0 -15 -4 -9 -12z"/>
<path d="M4067 5472 c4 -9 2 -13 -4 -9 -5 3 -10 0 -10 -8 0 -10 4 -12 12 -5 7
5 16 6 20 2 5 -4 5 -2 2 5 -4 6 -2 13 5 15 7 3 3 7 -9 10 -17 4 -20 2 -16 -10z"/>
<path d="M4150 5485 c0 -5 5 -17 10 -25 5 -8 10 -10 10 -5 0 6 -5 17 -10 25
-5 8 -10 11 -10 5z"/>
<path d="M4268 5468 c2 -10 9 -18 15 -18 6 0 7 3 4 7 -4 3 -3 11 3 17 6 8 3
12 -9 12 -12 0 -17 -6 -13 -18z"/>
<path d="M4359 5480 c-4 -34 -3 -44 9 -46 7 -1 8 0 3 2 -5 3 -7 16 -5 30 2 13
2 24 -1 24 -3 0 -6 -4 -6 -10z"/>
<path d="M1061 5464 c0 -11 3 -14 6 -6 3 7 2 16 -1 19 -3 4 -6 -2 -5 -13z"/>
<path d="M1093 5465 c0 -7 6 -11 14 -8 7 3 13 6 13 8 0 2 -6 5 -13 8 -8 3 -14
-1 -14 -8z"/>
<path d="M1318 5473 c7 -3 16 -2 19 1 4 3 -2 6 -13 5 -11 0 -14 -3 -6 -6z"/>
<path d="M1493 5466 c0 -9 7 -12 16 -8 13 5 14 3 4 -9 -10 -13 -10 -16 1 -16
18 0 14 27 -6 38 -10 5 -15 4 -15 -5z"/>
<path d="M1554 5463 c2 -10 -2 -22 -8 -26 -7 -6 -6 -7 3 -5 16 5 24 35 11 43
-5 3 -7 -3 -6 -12z"/>
<path d="M1973 5466 c0 -9 7 -12 16 -8 13 5 14 3 4 -9 -10 -13 -10 -16 1 -16
18 0 14 27 -6 38 -10 5 -15 4 -15 -5z"/>
<path d="M2034 5463 c2 -10 -2 -22 -8 -26 -7 -6 -6 -7 3 -5 16 5 24 35 11 43
-5 3 -7 -3 -6 -12z"/>
<path d="M2421 5464 c0 -11 3 -14 6 -6 3 7 2 16 -1 19 -3 4 -6 -2 -5 -13z"/>
<path d="M2453 5466 c0 -8 7 -12 15 -8 10 3 13 1 8 -6 -3 -6 -2 -13 3 -16 5
-4 8 1 7 10 -3 21 -33 39 -33 20z"/>
<path d="M2734 5469 c3 -15 29 -20 47 -8 10 7 6 8 -13 5 -15 -2 -29 0 -32 5
-2 5 -3 4 -2 -2z"/>
<path d="M3013 5465 c0 -8 5 -11 10 -8 7 4 8 -1 3 -12 -5 -15 -4 -16 9 -5 9 7
14 13 13 14 -2 1 -10 7 -19 14 -13 9 -16 9 -16 -3z"/>
<path d="M3216 5467 c5 -14 54 -18 54 -4 0 5 -6 7 -12 4 -7 -2 -21 0 -30 5
-13 6 -16 5 -12 -5z"/>
<path d="M3655 5470 c-4 -6 -11 -8 -16 -5 -5 4 -9 2 -9 -3 0 -5 8 -12 18 -14
12 -4 18 1 18 13 0 22 -2 23 -11 9z"/>
<path d="M3875 5471 c-3 -5 -2 -12 3 -15 5 -3 9 1 9 9 0 17 -3 19 -12 6z"/>
<path d="M3935 5469 c-4 -6 -14 -8 -22 -4 -13 4 -13 3 -4 -9 9 -11 9 -15 -1
-19 -7 -3 -3 -4 8 -4 15 1 20 6 16 16 -3 8 -1 12 5 8 5 -3 10 0 10 8 0 18 -3
19 -12 4z"/>
<path d="M4411 5471 c-19 -12 -22 -38 -5 -38 11 0 11 3 1 16 -10 12 -9 14 4 9
10 -4 16 -1 16 8 0 8 -1 14 -1 14 -1 0 -7 -4 -15 -9z"/>
<path d="M4451 5464 c0 -11 3 -14 6 -6 3 7 2 16 -1 19 -3 4 -6 -2 -5 -13z"/>
<path d="M988 5452 c-4 -12 1 -18 13 -18 12 0 15 4 9 12 -6 6 -7 14 -3 17 3 4
2 7 -4 7 -6 0 -13 -8 -15 -18z"/>
<path d="M1270 5460 c0 -5 5 -10 10 -10 6 0 10 5 10 10 0 6 -4 10 -10 10 -5 0
-10 -4 -10 -10z"/>
<path d="M1633 5455 c0 -8 4 -12 9 -9 5 3 6 10 3 15 -9 13 -12 11 -12 -6z"/>
<path d="M1706 5458 c3 -5 10 -6 15 -3 13 9 11 12 -6 12 -8 0 -12 -4 -9 -9z"/>
<path d="M1756 5453 c-6 -14 -5 -15 5 -6 7 7 10 15 7 18 -3 3 -9 -2 -12 -12z"/>
<path d="M2835 5461 c-3 -5 -2 -12 3 -15 5 -3 9 1 9 9 0 17 -3 19 -12 6z"/>
<path d="M2908 5452 c-4 -12 1 -18 13 -18 12 0 15 4 9 12 -6 6 -7 14 -3 17 3
4 2 7 -4 7 -6 0 -13 -8 -15 -18z"/>
<path d="M3532 5461 c-11 -7 -11 -9 0 -14 9 -3 15 1 15 9 0 8 -1 14 -1 14 -1
0 -7 -4 -14 -9z"/>
<path d="M3571 5454 c0 -11 3 -14 6 -6 3 7 2 16 -1 19 -3 4 -6 -2 -5 -13z"/>
<path d="M4546 5462 c-3 -5 1 -9 9 -9 8 0 12 4 9 9 -3 4 -7 8 -9 8 -2 0 -6 -4
-9 -8z"/>
<path d="M1228 5443 c7 -3 16 -2 19 1 4 3 -2 6 -13 5 -11 0 -14 -3 -6 -6z"/>
<path d="M1318 5432 c3 -10 1 -13 -6 -8 -6 3 -13 2 -16 -3 -4 -5 1 -8 10 -7
21 3 39 33 20 33 -8 0 -12 -7 -8 -15z"/>
<path d="M1677 5437 c4 -6 -1 -8 -11 -4 -11 5 -15 3 -10 -5 5 -8 1 -9 -12 -4
-10 4 -15 4 -11 0 4 -4 2 -12 -3 -19 -7 -8 -5 -12 5 -12 8 0 11 5 8 10 -4 6 1
8 11 4 11 -5 15 -3 10 5 -5 8 -1 9 12 4 10 -4 15 -4 11 0 -4 4 -2 12 3 19 7 8
5 12 -5 12 -8 0 -11 -5 -8 -10z"/>
<path d="M1798 5431 c5 -14 3 -14 -11 -2 -9 7 -17 11 -17 8 0 -2 6 -10 14 -16
12 -10 17 -8 25 7 7 14 7 19 -4 19 -8 0 -11 -7 -7 -16z"/>
<path d="M2158 5443 c7 -3 16 -2 19 1 4 3 -2 6 -13 5 -11 0 -14 -3 -6 -6z"/>
<path d="M2277 5437 c4 -6 0 -8 -8 -5 -10 4 -15 -1 -15 -12 0 -11 5 -16 15
-12 8 3 12 1 8 -5 -3 -5 0 -10 8 -10 11 0 12 4 4 14 -8 9 -8 17 0 26 8 10 7
14 -4 14 -8 0 -11 -5 -8 -10z"/>
<path d="M2638 5428 c2 -10 6 -18 7 -18 1 0 5 8 7 18 3 11 0 19 -7 19 -7 0
-10 -8 -7 -19z"/>
<path d="M2714 5434 c4 -9 2 -22 -3 -28 -7 -8 -4 -12 8 -12 15 0 17 5 11 22
-5 12 -6 25 -3 28 4 3 1 6 -6 6 -8 0 -11 -6 -7 -16z"/>
<path d="M2790 5435 c5 -7 7 -15 3 -19 -4 -4 1 -4 11 0 13 5 17 4 12 -4 -5 -8
-1 -10 10 -5 10 4 15 2 11 -4 -3 -5 0 -10 8 -10 10 0 12 4 5 12 -5 7 -7 15 -3
19 4 4 -1 4 -11 0 -13 -5 -17 -4 -12 4 5 8 1 10 -10 5 -10 -4 -15 -2 -11 4 3
5 0 10 -8 10 -10 0 -12 -4 -5 -12z"/>
<path d="M3279 5448 c-5 -16 -4 -46 2 -42 4 2 7 13 6 24 -1 17 -5 26 -8 18z"/>
<path d="M4119 5448 c-7 -25 -5 -36 9 -34 9 2 18 9 20 17 3 11 1 11 -7 -1 -10
-13 -15 -8 -12 13 1 6 -8 11 -10 5z"/>
<path d="M4598 5430 c12 -10 19 -20 17 -24 -3 -3 -2 -4 2 -1 15 11 11 34 -5
28 -9 -4 -13 -2 -9 4 3 5 -1 10 -10 10 -13 0 -12 -4 5 -17z"/>
<path d="M2374 5419 c0 -13 3 -15 13 -7 7 6 13 12 13 13 0 2 -6 5 -13 8 -7 3
-13 -3 -13 -14z"/>
<path d="M2614 5426 c1 -8 5 -18 8 -22 4 -3 5 1 4 10 -1 8 -5 18 -8 22 -4 3
-5 -1 -4 -10z"/>
<path d="M3153 5426 c0 -17 30 -14 33 3 2 7 0 7 -3 1 -3 -7 -9 -8 -17 -1 -9 8
-13 7 -13 -3z"/>
<path d="M3302 5420 c0 -14 2 -19 5 -12 2 6 2 18 0 25 -3 6 -5 1 -5 -13z"/>
<path d="M3358 5433 c7 -3 16 -2 19 1 4 3 -2 6 -13 5 -11 0 -14 -3 -6 -6z"/>
<path d="M4020 5431 c0 -7 -5 -9 -12 -5 -7 5 -8 3 -3 -5 5 -9 10 -10 18 -2 6
6 8 14 4 18 -4 3 -7 1 -7 -6z"/>
<path d="M4492 5431 c-11 -7 -11 -9 0 -14 9 -3 15 1 15 9 0 8 -1 14 -1 14 -1
0 -7 -4 -14 -9z"/>
<path d="M953 5411 c10 -12 9 -14 -5 -8 -26 9 -22 2 10 -19 21 -14 24 -14 14
-2 -10 13 -10 17 0 21 11 4 10 6 0 6 -7 1 -11 5 -8 9 3 5 -1 9 -9 9 -12 0 -12
-3 -2 -16z"/>
<path d="M1030 5417 c0 -4 12 -5 26 -3 38 7 40 14 5 12 -17 0 -31 -4 -31 -9z"/>
<path d="M1115 5414 c-10 -8 -14 -14 -8 -14 7 0 15 5 19 11 4 8 9 7 15 -2 6
-10 9 -10 9 -2 0 19 -14 22 -35 7z"/>
<path d="M1234 5422 c4 -3 14 -7 22 -8 9 -1 13 0 10 4 -4 3 -14 7 -22 8 -9 1
-13 0 -10 -4z"/>
<path d="M1415 5419 c-4 -6 -4 -13 -1 -16 3 -4 6 -1 6 6 0 7 5 9 12 5 7 -4 8
-3 4 4 -9 15 -13 15 -21 1z"/>
<path d="M1473 5415 c0 -8 4 -12 9 -9 4 3 8 9 8 15 0 5 -4 9 -8 9 -5 0 -9 -7
-9 -15z"/>
<path d="M1895 5420 c-4 -6 -3 -10 2 -9 20 3 27 -2 13 -11 -11 -7 -11 -10 -2
-10 8 0 10 -5 6 -12 -4 -7 -3 -9 1 -5 14 12 14 35 0 47 -9 8 -15 8 -20 0z"/>
<path d="M1950 5426 c0 -2 7 -7 16 -10 8 -3 12 -2 9 4 -6 10 -25 14 -25 6z"/>
<path d="M2135 5419 c-3 -4 2 -6 10 -5 21 3 28 13 10 13 -9 0 -18 -4 -20 -8z"/>
<path d="M2410 5418 c0 -11 12 -10 30 2 12 7 10 9 -8 7 -12 0 -22 -5 -22 -9z"/>
<path d="M2530 5418 c0 -4 4 -8 9 -8 6 0 12 4 15 8 3 5 -1 9 -9 9 -8 0 -15 -4
-15 -9z"/>
<path d="M2588 5412 c-3 -11 0 -19 7 -19 7 0 10 8 7 19 -2 10 -6 18 -7 18 -1
0 -5 -8 -7 -18z"/>
<path d="M3196 5413 c-6 -14 -5 -15 5 -6 7 7 10 15 7 18 -3 3 -9 -2 -12 -12z"/>
<path d="M3397 5418 c-7 -5 0 -6 17 -4 16 3 31 7 33 10 8 8 -37 2 -50 -6z"/>
<path d="M3576 5418 c3 -5 10 -6 15 -3 13 9 11 12 -6 12 -8 0 -12 -4 -9 -9z"/>
<path d="M3716 5422 c-3 -5 1 -9 9 -9 8 0 12 4 9 9 -3 4 -7 8 -9 8 -2 0 -6 -4
-9 -8z"/>
<path d="M4195 5421 c-3 -5 -2 -12 3 -15 5 -3 9 1 9 9 0 17 -3 19 -12 6z"/>
<path d="M4293 5417 c-3 -4 -2 -11 1 -14 3 -4 6 -1 6 5 0 6 11 9 25 6 14 -2
25 -1 25 4 0 11 -50 10 -57 -1z"/>
<path d="M4440 5420 c18 -12 30 -13 30 -2 0 4 -10 9 -22 9 -18 2 -20 0 -8 -7z"/>
<path d="M1442 5397 c-8 -9 -6 -16 7 -24 14 -9 18 -8 18 3 0 7 -5 10 -10 7 -6
-4 -8 0 -4 10 8 20 3 22 -11 4z"/>
<path d="M1559 5408 c-6 -15 -4 -58 3 -58 4 0 6 11 4 24 -2 14 1 27 7 30 9 3
9 5 0 5 -7 1 -13 0 -14 -1z"/>
<path d="M1833 5388 c-2 -18 0 -20 7 -8 12 18 13 30 2 30 -4 0 -9 -10 -9 -22z"/>
<path d="M1949 5404 c5 -3 7 -16 5 -30 -2 -13 0 -24 4 -24 14 0 8 53 -6 56 -7
1 -8 0 -3 -2z"/>
<path d="M2068 5392 c3 -9 1 -13 -5 -9 -5 3 -10 0 -10 -8 0 -11 4 -12 14 -4 7
6 19 9 26 6 8 -3 14 1 14 8 0 8 -7 11 -15 7 -9 -3 -13 -1 -9 5 3 5 0 10 -7 10
-8 0 -12 -7 -8 -15z"/>
<path d="M2470 5400 c14 -9 7 -14 -13 -11 -5 1 -6 -2 -3 -7 6 -11 43 -9 53 3
5 4 2 4 -6 0 -10 -6 -13 -4 -9 6 4 10 -1 15 -15 17 -17 1 -19 -1 -7 -8z"/>
<path d="M2880 5395 c-7 -8 -9 -15 -4 -15 5 0 2 -5 -6 -10 -11 -7 -11 -10 -2
-10 7 0 10 -5 6 -12 -4 -7 -3 -8 5 -4 6 4 8 12 5 18 -5 7 -2 9 8 6 8 -4 15 -1
15 7 0 8 -7 11 -16 7 -14 -5 -14 -3 -2 11 7 9 11 17 8 17 -2 0 -10 -7 -17 -15z"/>
<path d="M2989 5390 c5 -8 6 -21 4 -27 -3 -7 0 -13 5 -13 6 0 9 8 7 18 -1 9 1
22 6 27 5 7 1 11 -11 11 -13 0 -16 -5 -11 -16z"/>
<path d="M3356 5398 c3 -5 10 -6 15 -3 13 9 11 12 -6 12 -8 0 -12 -4 -9 -9z"/>
<path d="M3469 5390 c5 -8 6 -21 4 -27 -3 -7 0 -13 5 -13 6 0 9 8 7 18 -1 9 1
22 6 27 5 7 1 11 -11 11 -13 0 -16 -5 -11 -16z"/>
<path d="M3845 5402 c-5 -4 -11 -14 -13 -22 -2 -8 0 -12 4 -8 4 4 12 3 19 -2
8 -7 12 -5 12 5 0 8 -5 11 -10 8 -6 -4 -8 0 -4 10 7 19 6 20 -8 9z"/>
<path d="M3959 5408 c-6 -15 -4 -58 3 -58 4 0 6 11 4 24 -2 14 1 27 7 30 9 3
9 5 0 5 -7 1 -13 0 -14 -1z"/>
<path d="M4035 5393 c1 -10 -1 -23 -6 -28 -5 -7 -1 -11 11 -11 13 0 16 5 11
16 -5 8 -6 21 -4 28 3 6 0 12 -5 12 -6 0 -9 -8 -7 -17z"/>
<path d="M4388 5403 c10 -4 10 -8 0 -21 -11 -13 -11 -14 0 -8 7 4 19 3 26 -3
9 -8 13 -7 13 4 0 8 -5 11 -10 8 -6 -4 -8 0 -5 8 4 10 -1 15 -16 16 -11 0 -15
-1 -8 -4z"/>
<path d="M1173 5387 c0 -19 89 -15 94 3 3 10 1 11 -4 4 -8 -11 -48 -12 -75 -2
-8 4 -15 1 -15 -5z"/>
<path d="M1293 5390 c2 -10 15 -15 36 -14 20 0 30 -4 27 -11 -2 -6 2 -12 9
-12 8 0 11 7 7 15 -3 9 -1 13 5 9 5 -3 10 0 10 8 0 8 -5 11 -11 7 -17 -11 -70
-9 -79 3 -5 6 -7 4 -4 -5z"/>
<path d="M1694 5381 c0 -12 6 -17 18 -13 10 2 18 9 18 15 0 6 -3 7 -7 4 -3 -4
-11 -3 -17 3 -8 6 -12 3 -12 -9z"/>
<path d="M2131 5384 c0 -11 3 -14 6 -6 3 7 2 16 -1 19 -3 4 -6 -2 -5 -13z"/>
<path d="M2208 5393 c-10 -2 -18 -9 -18 -15 0 -6 3 -8 7 -5 3 4 11 3 17 -3 8
-6 12 -3 12 11 0 10 0 18 -1 18 0 -1 -8 -3 -17 -6z"/>
<path d="M2353 5385 c0 -8 4 -12 9 -9 5 3 6 10 3 15 -9 13 -12 11 -12 -6z"/>
<path d="M2635 5389 c-4 -6 -5 -12 -2 -15 2 -3 7 2 10 11 7 17 1 20 -8 4z"/>
<path d="M2796 5387 c3 -10 9 -15 12 -12 3 3 0 11 -7 18 -10 9 -11 8 -5 -6z"/>
<path d="M3214 5381 c0 -12 6 -17 18 -13 10 2 18 9 18 15 0 6 -3 7 -7 4 -3 -4
-11 -3 -17 3 -8 6 -12 3 -12 -9z"/>
<path d="M3571 5391 c-8 -5 -20 -7 -28 -4 -7 3 -13 1 -13 -4 0 -14 49 -11 54
4 6 15 5 16 -13 4z"/>
<path d="M3616 5387 c5 -14 54 -18 54 -4 0 5 -6 7 -12 4 -7 -2 -21 0 -30 5
-13 6 -16 5 -12 -5z"/>
<path d="M3708 5393 c7 -3 16 -2 19 1 4 3 -2 6 -13 5 -11 0 -14 -3 -6 -6z"/>
<path d="M4108 5393 c7 -3 16 -2 19 1 4 3 -2 6 -13 5 -11 0 -14 -3 -6 -6z"/>
<path d="M4255 5390 c-4 -6 -11 -8 -16 -5 -5 3 -6 -2 -2 -11 4 -12 3 -15 -5
-10 -8 5 -10 1 -5 -10 4 -11 8 -13 11 -6 2 7 8 10 13 7 5 -4 6 2 2 11 -4 10
-2 15 4 11 5 -3 10 0 10 8 0 18 -3 19 -12 5z"/>
<path d="M4571 5393 c-1 -17 16 -25 25 -12 4 7 3 9 -4 5 -5 -3 -13 0 -15 6 -4
9 -6 10 -6 1z"/>
<path d="M993 5375 c0 -8 4 -12 9 -9 5 3 6 10 3 15 -9 13 -12 11 -12 -6z"/>
<path d="M1075 5381 c-3 -5 -2 -12 3 -15 5 -3 9 1 9 9 0 17 -3 19 -12 6z"/>
<path d="M1105 5380 c-3 -6 1 -7 9 -4 18 7 21 14 7 14 -6 0 -13 -4 -16 -10z"/>
<path d="M2314 5382 c3 -5 0 -13 -6 -15 -10 -4 -10 -6 0 -6 7 -1 10 -5 7 -11
-4 -6 1 -7 11 -3 11 4 13 8 6 11 -7 2 -10 8 -7 12 3 5 0 12 -6 16 -7 4 -9 3
-5 -4z"/>
<path d="M2676 5382 c-3 -5 1 -9 9 -9 8 0 12 4 9 9 -3 4 -7 8 -9 8 -2 0 -6 -4
-9 -8z"/>
<path d="M3073 5383 c4 -3 3 -11 -3 -17 -6 -8 -3 -12 9 -12 12 0 17 6 13 18
-2 10 -9 18 -15 18 -6 0 -7 -3 -4 -7z"/>
<path d="M3333 5376 c-4 -5 0 -6 7 -1 9 6 12 4 8 -7 -4 -8 0 -15 8 -15 7 0 10
5 7 10 -4 6 0 8 9 5 8 -4 15 -1 15 5 0 14 -46 16 -54 3z"/>
<path d="M3411 5374 c0 -11 3 -14 6 -6 3 7 2 16 -1 19 -3 4 -6 -2 -5 -13z"/>
<path d="M3750 5380 c0 -5 5 -10 10 -10 6 0 10 5 10 10 0 6 -4 10 -10 10 -5 0
-10 -4 -10 -10z"/>
<path d="M4150 5381 c0 -6 4 -13 10 -16 6 -3 7 1 4 9 -7 18 -14 21 -14 7z"/>
<path d="M4499 5379 c-10 -7 -6 -8 13 -5 15 2 29 0 32 -5 2 -5 3 -4 2 2 -3 15
-29 20 -47 8z"/>
<path d="M1186 5362 c-3 -5 1 -9 9 -9 8 0 12 4 9 9 -3 4 -7 8 -9 8 -2 0 -6 -4
-9 -8z"/>
<path d="M1604 5359 c-3 -6 0 -17 8 -25 13 -13 15 -13 15 0 0 8 -5 12 -10 9
-6 -4 -8 0 -4 10 7 19 2 23 -9 6z"/>
<path d="M1670 5361 c0 -6 4 -13 10 -16 6 -3 7 1 4 9 -7 18 -14 21 -14 7z"/>
<path d="M1788 5348 c2 -10 6 -18 7 -18 1 0 5 8 7 18 3 11 0 19 -7 19 -7 0
-10 -8 -7 -19z"/>
<path d="M1875 5361 c6 -11 4 -13 -9 -8 -9 4 -15 3 -11 -2 3 -5 0 -11 -7 -13
-7 -3 -5 -7 6 -11 11 -5 15 -3 10 5 -5 7 -2 9 8 5 17 -6 19 16 3 30 -4 5 -5 2
0 -6z"/>
<path d="M2076 5362 c-3 -5 1 -9 9 -9 8 0 12 4 9 9 -3 4 -7 8 -9 8 -2 0 -6 -4
-9 -8z"/>
<path d="M2239 5363 c-6 -53 -7 -74 -2 -70 6 7 14 77 7 77 -2 0 -4 -3 -5 -7z"/>
<path d="M2558 5363 c7 -3 16 -2 19 1 4 3 -2 6 -13 5 -11 0 -14 -3 -6 -6z"/>
<path d="M3147 5353 c3 -7 6 -13 8 -13 2 0 5 6 8 13 3 8 -1 14 -8 14 -7 0 -11
-6 -8 -14z"/>
<path d="M3707 5353 c3 -7 6 -13 8 -13 2 0 5 6 8 13 3 8 -1 14 -8 14 -7 0 -11
-6 -8 -14z"/>
<path d="M3798 5348 c2 -10 6 -18 7 -18 1 0 5 8 7 18 3 11 0 19 -7 19 -7 0
-10 -8 -7 -19z"/>
<path d="M4109 5352 c11 -20 38 -24 38 -6 0 11 -3 11 -16 1 -12 -10 -14 -9 -9
4 4 9 1 16 -8 16 -9 0 -10 -5 -5 -15z"/>
<path d="M1016 5347 c3 -10 9 -15 12 -12 3 3 0 11 -7 18 -10 9 -11 8 -5 -6z"/>
<path d="M1050 5350 c-11 -7 -11 -10 -2 -10 7 0 10 -4 7 -10 -4 -6 1 -7 11 -3
13 5 15 3 9 -8 -5 -8 -4 -11 0 -6 16 14 14 36 -3 30 -10 -4 -13 -2 -8 5 9 14
6 15 -14 2z"/>
<path d="M1491 5352 c-1 -7 -6 -10 -13 -6 -6 4 -8 3 -5 -4 8 -12 32 -10 44 3
4 4 3 5 -4 2 -6 -4 -14 -1 -16 5 -4 10 -6 10 -6 0z"/>
<path d="M1819 5358 c-5 -18 -6 -38 -1 -34 7 8 12 36 6 36 -2 0 -4 -1 -5 -2z"/>
<path d="M2013 5352 c-7 -4 -9 -13 -4 -21 6 -9 10 -7 14 8 3 12 4 21 4 21 -1
0 -7 -4 -14 -8z"/>
<path d="M2406 5351 c-19 -7 -19 -8 0 -13 13 -3 21 0 21 8 0 8 -1 14 -1 13 -1
0 -10 -4 -20 -8z"/>
<path d="M2531 5344 c0 -11 3 -14 6 -6 3 7 2 16 -1 19 -3 4 -6 -2 -5 -13z"/>
<path d="M2648 5349 c-4 -11 1 -15 16 -15 13 0 23 6 23 13 0 9 -4 10 -13 2 -8
-7 -13 -6 -16 3 -3 8 -6 8 -10 -3z"/>
<path d="M2753 5347 c0 -7 10 -13 23 -13 15 0 20 4 16 15 -4 11 -7 11 -10 3
-3 -9 -8 -10 -16 -3 -9 8 -13 7 -13 -2z"/>
<path d="M3175 5351 c-3 -5 -2 -12 3 -15 5 -3 9 1 9 9 0 17 -3 19 -12 6z"/>
<path d="M3739 5358 c-5 -18 -6 -38 -1 -34 7 8 12 36 6 36 -2 0 -4 -1 -5 -2z"/>
<path d="M3773 5353 c4 -6 2 -13 -5 -15 -8 -3 -6 -6 4 -10 17 -7 19 15 3 29
-4 4 -5 3 -2 -4z"/>
<path d="M3897 5345 c3 -8 9 -12 14 -9 12 7 11 11 -5 17 -10 4 -13 1 -9 -8z"/>
<path d="M4273 5345 c0 -8 4 -15 9 -15 4 0 8 4 8 9 0 6 -4 12 -8 15 -5 3 -9
-1 -9 -9z"/>
<path d="M4332 5351 c-11 -7 -11 -9 0 -14 9 -3 15 1 15 9 0 8 -1 14 -1 14 -1
0 -7 -4 -14 -9z"/>
<path d="M4451 5344 c0 -11 3 -14 6 -6 3 7 2 16 -1 19 -3 4 -6 -2 -5 -13z"/>
<path d="M1124 5338 c-3 -4 5 -5 17 -3 30 6 36 14 9 12 -12 -1 -24 -5 -26 -9z"/>
<path d="M1400 5340 c18 -12 30 -13 30 -2 0 4 -10 9 -22 9 -18 2 -20 0 -8 -7z"/>
<path d="M1533 5335 c0 -8 4 -12 9 -9 5 3 6 10 3 15 -9 13 -12 11 -12 -6z"/>
<path d="M1975 5341 c-3 -5 -2 -12 3 -15 5 -3 9 1 9 9 0 17 -3 19 -12 6z"/>
<path d="M2035 5341 c-3 -5 -2 -12 3 -15 5 -3 9 1 9 9 0 17 -3 19 -12 6z"/>
<path d="M2105 5340 c-3 -6 1 -7 9 -4 18 7 21 14 7 14 -6 0 -13 -4 -16 -10z"/>
<path d="M2360 5340 c-9 -6 -10 -10 -3 -10 6 0 15 5 18 10 8 12 4 12 -15 0z"/>
<path d="M2936 5338 c3 -5 10 -6 15 -3 13 9 11 12 -6 12 -8 0 -12 -4 -9 -9z"/>
<path d="M3026 5338 c3 -5 10 -6 15 -3 13 9 11 12 -6 12 -8 0 -12 -4 -9 -9z"/>
<path d="M3405 5339 c-3 -4 2 -6 10 -5 21 3 28 13 10 13 -9 0 -18 -4 -20 -8z"/>
<path d="M3507 5339 c7 -7 15 -10 18 -7 3 3 -2 9 -12 12 -14 6 -15 5 -6 -5z"/>
<path d="M3541 5334 c0 -11 3 -14 6 -6 3 7 2 16 -1 19 -3 4 -6 -2 -5 -13z"/>
<path d="M3653 5335 c0 -7 6 -11 14 -8 7 3 13 6 13 8 0 2 -6 5 -13 8 -8 3 -14
-1 -14 -8z"/>
<path d="M4526 5338 c3 -5 10 -6 15 -3 13 9 11 12 -6 12 -8 0 -12 -4 -9 -9z"/>
<path d="M1199 5338 c-6 -22 -5 -39 3 -45 6 -3 8 -1 4 5 -3 5 0 13 6 15 10 4
10 6 0 6 -7 1 -10 6 -7 11 3 6 4 10 1 10 -3 0 -6 -1 -7 -2z"/>
<path d="M1347 5326 c-4 -10 1 -12 14 -9 23 6 24 9 5 16 -8 3 -17 0 -19 -7z"/>
<path d="M1557 5327 c-3 -8 1 -14 8 -14 7 0 11 6 8 14 -3 7 -6 13 -8 13 -2 0
-5 -6 -8 -13z"/>
<path d="M1947 5327 c-3 -8 1 -14 8 -14 7 0 11 6 8 14 -3 7 -6 13 -8 13 -2 0
-5 -6 -8 -13z"/>
<path d="M2159 5338 c-6 -22 -5 -39 3 -45 6 -3 8 -1 4 5 -3 5 0 13 6 15 10 4
10 6 0 6 -7 1 -10 6 -7 11 3 6 4 10 1 10 -3 0 -6 -1 -7 -2z"/>
<path d="M3274 5325 c1 -8 6 -18 11 -22 4 -4 5 -3 2 4 -4 6 -2 13 5 15 8 3 6
6 -4 10 -10 4 -15 2 -14 -7z"/>
<path d="M1273 5308 c-2 -18 0 -20 7 -8 12 18 13 30 2 30 -4 0 -9 -10 -9 -22z"/>
<path d="M1639 5320 c-4 -34 -3 -44 9 -46 7 -1 8 0 3 2 -5 3 -7 16 -5 30 2 13
2 24 -1 24 -3 0 -6 -4 -6 -10z"/>
<path d="M2384 5322 c4 -3 14 -7 22 -8 9 -1 13 0 10 4 -4 3 -14 7 -22 8 -9 1
-13 0 -10 -4z"/>
<path d="M3035 5320 c-11 -5 -14 -9 -7 -9 7 -1 11 -5 8 -10 -7 -11 21 -8 31 4
5 4 2 5 -6 0 -11 -6 -13 -4 -8 8 3 10 5 17 4 16 -1 0 -11 -4 -22 -9z"/>
<path d="M3714 5308 c2 -15 0 -29 -5 -32 -5 -2 -4 -3 2 -2 15 3 20 29 8 47 -7
10 -8 6 -5 -13z"/>
<path d="M3995 5321 c-3 -5 -2 -12 3 -15 5 -3 9 1 9 9 0 17 -3 19 -12 6z"/>
<path d="M4029 5324 c5 -3 7 -17 5 -32 -3 -19 -2 -23 5 -13 12 18 7 44 -8 47
-6 1 -7 0 -2 -2z"/>
<path d="M4225 5319 c-3 -4 2 -6 10 -5 21 3 28 13 10 13 -9 0 -18 -4 -20 -8z"/>
<path d="M1020 5312 c0 -6 -11 -9 -27 -6 -15 3 -25 3 -22 -1 12 -11 49 -14 55
-4 3 6 3 13 0 16 -3 4 -6 1 -6 -5z"/>
<path d="M1691 5311 c-19 -12 -22 -38 -5 -38 11 0 11 3 1 16 -10 12 -9 14 4 9
10 -4 16 -1 16 8 0 8 -1 14 -1 14 -1 0 -7 -4 -15 -9z"/>
<path d="M1794 5303 c2 -10 -2 -22 -8 -26 -7 -6 -6 -7 3 -5 16 5 24 35 11 43
-5 3 -7 -3 -6 -12z"/>
<path d="M2693 5305 c0 -8 5 -11 10 -8 6 4 8 0 5 -8 -4 -10 1 -15 12 -15 11 0
16 5 12 15 -3 8 -1 12 5 8 5 -3 10 0 10 8 0 11 -4 12 -14 4 -9 -8 -17 -8 -26
0 -10 8 -14 7 -14 -4z"/>
<path d="M2931 5311 c-8 -5 -20 -7 -28 -4 -7 3 -13 1 -13 -5 0 -6 8 -9 18 -7
9 1 22 -1 27 -6 7 -5 11 0 11 12 0 10 0 19 -1 19 0 0 -6 -4 -14 -9z"/>
<path d="M3171 5311 c-8 -5 -20 -7 -28 -4 -7 3 -13 1 -13 -4 0 -14 49 -11 54
4 6 15 5 16 -13 4z"/>
<path d="M3238 5313 c7 -3 16 -2 19 1 4 3 -2 6 -13 5 -11 0 -14 -3 -6 -6z"/>
<path d="M3420 5312 c0 -6 -11 -9 -27 -6 -15 3 -25 3 -22 -1 12 -11 49 -14 55
-4 3 6 3 13 0 16 -3 4 -6 1 -6 -5z"/>
<path d="M3508 5313 c6 -2 9 -10 6 -15 -4 -7 -2 -8 5 -4 13 9 5 26 -12 25 -9
0 -8 -2 1 -6z"/>
<path d="M3573 5305 c0 -8 5 -11 10 -8 6 4 8 0 5 -8 -4 -10 1 -15 16 -16 11 0
15 1 8 4 -10 4 -10 8 0 21 11 13 11 14 0 8 -7 -4 -19 -3 -26 3 -9 8 -13 7 -13
-4z"/>
<path d="M3958 5313 c7 -3 16 -2 19 1 4 3 -2 6 -13 5 -11 0 -14 -3 -6 -6z"/>
<path d="M4140 5312 c0 -6 -11 -9 -27 -6 -15 3 -25 3 -22 -1 12 -11 49 -14 55
-4 3 6 3 13 0 16 -3 4 -6 1 -6 -5z"/>
<path d="M4501 5304 c0 -11 3 -14 6 -6 3 7 2 16 -1 19 -3 4 -6 -2 -5 -13z"/>
<path d="M4533 5305 c0 -7 7 -11 15 -7 10 3 13 1 8 -6 -4 -7 -3 -12 2 -12 6 0
13 8 16 17 4 10 4 14 0 11 -4 -4 -14 -3 -24 2 -12 6 -17 5 -17 -5z"/>
<path d="M1155 5301 c-3 -5 -2 -12 3 -15 5 -3 9 1 9 9 0 17 -3 19 -12 6z"/>
<path d="M1356 5302 c-3 -5 1 -9 9 -9 8 0 12 4 9 9 -3 4 -7 8 -9 8 -2 0 -6 -4
-9 -8z"/>
<path d="M1466 5298 c3 -5 10 -6 15 -3 13 9 11 12 -6 12 -8 0 -12 -4 -9 -9z"/>
<path d="M1519 5303 c0 -5 -2 -16 -4 -26 -2 -11 -1 -16 3 -13 8 8 14 46 7 46
-3 0 -5 -3 -6 -7z"/>
<path d="M1895 5300 c-4 -6 -3 -10 2 -9 20 3 27 -2 13 -11 -11 -7 -11 -10 -2
-10 8 0 10 -5 6 -12 -4 -7 -3 -9 1 -5 14 12 14 35 0 47 -9 8 -15 8 -20 0z"/>
<path d="M1993 5292 c0 -12 5 -22 9 -22 11 0 10 12 -2 30 -7 12 -9 10 -7 -8z"/>
<path d="M2115 5301 c-3 -5 -2 -12 3 -15 5 -3 9 1 9 9 0 17 -3 19 -12 6z"/>
<path d="M2256 5294 c-3 -7 2 -10 15 -7 22 6 26 20 4 20 -8 0 -16 -6 -19 -13z"/>
<path d="M2341 5294 c0 -11 3 -14 6 -6 3 7 2 16 -1 19 -3 4 -6 -2 -5 -13z"/>
<path d="M2373 5295 c0 -7 6 -11 14 -8 7 3 13 6 13 8 0 2 -6 5 -13 8 -8 3 -14
-1 -14 -8z"/>
<path d="M2419 5299 c-10 -7 -6 -8 13 -5 15 2 29 0 32 -5 2 -5 3 -4 2 2 -3 15
-29 20 -47 8z"/>
<path d="M2496 5294 c-3 -7 2 -10 15 -7 22 6 26 20 4 20 -8 0 -16 -6 -19 -13z"/>
<path d="M2588 5292 c-4 -12 1 -18 13 -18 12 0 15 4 9 12 -6 6 -7 14 -3 17 3
4 2 7 -4 7 -6 0 -13 -8 -15 -18z"/>
<path d="M2828 5292 c-4 -12 1 -18 13 -18 12 0 15 4 9 12 -6 6 -7 14 -3 17 3
4 2 7 -4 7 -6 0 -13 -8 -15 -18z"/>
<path d="M3196 5293 c-6 -14 -5 -15 5 -6 7 7 10 15 7 18 -3 3 -9 -2 -12 -12z"/>
<path d="M3866 5298 c3 -5 10 -6 15 -3 13 9 11 12 -6 12 -8 0 -12 -4 -9 -9z"/>
<path d="M3919 5303 c0 -5 -2 -16 -4 -26 -2 -11 -1 -16 3 -13 8 8 14 46 7 46
-3 0 -5 -3 -6 -7z"/>
<path d="M4196 5302 c-3 -5 1 -9 9 -9 8 0 12 4 9 9 -3 4 -7 8 -9 8 -2 0 -6 -4
-9 -8z"/>
<path d="M4246 5301 c-19 -7 -19 -8 0 -13 13 -3 21 0 21 8 0 8 -1 14 -1 13 -1
0 -10 -4 -20 -8z"/>
<path d="M4291 5294 c0 -11 3 -14 6 -6 3 7 2 16 -1 19 -3 4 -6 -2 -5 -13z"/>
<path d="M4330 5298 c0 -4 11 -6 24 -4 14 2 27 0 30 -5 2 -5 3 -4 2 3 -3 14
-56 20 -56 6z"/>
<path d="M4416 5293 c-4 -10 -1 -11 12 -5 9 5 23 7 30 5 6 -3 12 -1 12 4 0 14
-49 10 -54 -4z"/>
<path d="M1033 5275 c0 -8 4 -12 9 -9 4 3 8 9 8 15 0 5 -4 9 -8 9 -5 0 -9 -7
-9 -15z"/>
<path d="M1107 5273 c3 -7 6 -13 8 -13 2 0 5 6 8 13 3 8 -1 14 -8 14 -7 0 -11
-6 -8 -14z"/>
<path d="M1227 5273 c3 -7 6 -13 8 -13 2 0 5 6 8 13 3 8 -1 14 -8 14 -7 0 -11
-6 -8 -14z"/>
<path d="M1315 5280 c6 -10 4 -12 -11 -6 -15 6 -17 5 -6 -5 9 -9 15 -10 23 -2
8 8 7 13 -2 18 -8 6 -10 4 -4 -5z"/>
<path d="M1437 5277 c4 -7 -1 -8 -13 -3 -15 6 -17 5 -6 -5 10 -11 15 -10 28 2
13 14 13 16 0 16 -8 0 -12 -5 -9 -10z"/>
<path d="M1558 5283 c7 -3 16 -2 19 1 4 3 -2 6 -13 5 -11 0 -14 -3 -6 -6z"/>
<path d="M2067 5273 c3 -7 6 -13 8 -13 2 0 5 6 8 13 3 8 -1 14 -8 14 -7 0 -11
-6 -8 -14z"/>
<path d="M2187 5273 c3 -7 6 -13 8 -13 2 0 5 6 8 13 3 8 -1 14 -8 14 -7 0 -11
-6 -8 -14z"/>
<path d="M2995 5280 c6 -10 4 -12 -11 -6 -15 6 -17 5 -6 -5 9 -9 15 -10 23 -2
8 8 7 13 -2 18 -8 6 -10 4 -4 -5z"/>
<path d="M3113 5275 c0 -8 4 -12 9 -9 5 3 6 10 3 15 -9 13 -12 11 -12 -6z"/>
<path d="M3238 5271 c5 -13 3 -14 -9 -4 -12 10 -15 8 -16 -10 0 -12 1 -16 4
-9 4 10 8 10 21 0 10 -7 14 -9 10 -4 -4 5 -3 16 2 26 6 12 5 17 -5 17 -8 0
-11 -7 -7 -16z"/>
<path d="M3357 5277 c4 -6 0 -8 -9 -5 -8 4 -15 0 -15 -7 0 -10 5 -11 18 -4 24
12 31 26 14 26 -8 0 -11 -5 -8 -10z"/>
<path d="M3477 5277 c4 -6 0 -8 -8 -5 -10 4 -15 -1 -17 -15 -1 -17 1 -19 8 -7
9 14 14 7 11 -13 -1 -5 3 -6 9 -2 6 3 8 11 4 16 -3 5 -1 16 5 23 8 9 7 13 -4
13 -8 0 -11 -5 -8 -10z"/>
<path d="M3838 5282 c-14 -6 -13 -9 6 -24 18 -13 23 -13 23 -3 0 8 -5 11 -10
8 -6 -4 -8 0 -4 10 3 10 5 17 4 16 -1 0 -9 -3 -19 -7z"/>
<path d="M3957 5273 c3 -7 0 -19 -6 -26 -8 -10 -7 -14 4 -14 8 0 11 5 8 10 -4
6 0 8 9 5 8 -4 15 0 15 8 0 7 -5 10 -10 7 -6 -4 -8 0 -5 9 4 8 1 15 -7 15 -7
0 -11 -6 -8 -14z"/>
<path d="M4077 5273 c3 -7 0 -19 -6 -26 -8 -10 -7 -14 4 -14 8 0 11 5 8 10 -4
6 0 8 9 5 8 -4 15 0 15 8 0 7 -5 10 -10 7 -6 -4 -8 0 -5 9 4 8 1 15 -7 15 -7
0 -11 -6 -8 -14z"/>
<path d="M1135 5271 c-3 -5 -2 -12 3 -15 5 -3 9 1 9 9 0 17 -3 19 -12 6z"/>
<path d="M1255 5271 c-3 -5 -2 -12 3 -15 5 -3 9 1 9 9 0 17 -3 19 -12 6z"/>
<path d="M2871 5267 c-8 -10 -7 -14 2 -14 8 0 14 6 14 14 0 7 -1 13 -2 13 -2
0 -8 -6 -14 -13z"/>
<path d="M3090 5271 c0 -7 -5 -9 -12 -5 -7 5 -8 3 -3 -5 5 -9 10 -10 18 -2 6
6 8 14 4 18 -4 3 -7 1 -7 -6z"/>
<path d="M4053 5265 c0 -8 4 -12 9 -9 5 3 6 10 3 15 -9 13 -12 11 -12 -6z"/>
<path d="M1334 5258 c-5 -7 -3 -8 6 -3 9 6 12 4 8 -7 -4 -8 0 -15 7 -15 10 0
11 5 4 19 -11 21 -15 22 -25 6z"/>
<path d="M1627 5259 c7 -7 15 -10 18 -7 3 3 -2 9 -12 12 -14 6 -15 5 -6 -5z"/>
<path d="M1800 5260 c-9 -6 -10 -10 -3 -10 6 0 15 5 18 10 8 12 4 12 -15 0z"/>
<path d="M2170 5261 c0 -6 4 -13 10 -16 6 -3 7 1 4 9 -7 18 -14 21 -14 7z"/>
<path d="M2556 5262 c-3 -4 4 -9 15 -9 23 -2 25 3 4 10 -8 4 -16 3 -19 -1z"/>
<path d="M2680 5260 c8 -5 20 -10 25 -10 6 0 3 5 -5 10 -8 5 -19 10 -25 10 -5
0 -3 -5 5 -10z"/>
<path d="M2953 5250 c-1 -11 2 -20 7 -20 4 0 7 7 6 15 -3 23 -12 26 -13 5z"/>
<path d="M3530 5262 c0 -4 10 -9 22 -9 18 -2 20 0 8 7 -18 12 -30 13 -30 2z"/>
<path d="M3650 5260 c0 -5 5 -10 10 -10 6 0 10 5 10 10 0 6 -4 10 -10 10 -5 0
-10 -4 -10 -10z"/>
<path d="M3751 5265 c4 -3 19 -8 35 -11 16 -3 26 -2 23 1 -4 3 -19 8 -35 11
-16 3 -26 2 -23 -1z"/>
<path d="M4176 5258 c3 -5 10 -6 15 -3 13 9 11 12 -6 12 -8 0 -12 -4 -9 -9z"/>
<path d="M4296 5258 c3 -5 10 -6 15 -3 13 9 11 12 -6 12 -8 0 -12 -4 -9 -9z"/>
<path d="M4477 5258 c-7 -5 0 -6 17 -4 16 3 31 7 33 10 8 8 -37 2 -50 -6z"/>
<path d="M1475 5251 c-3 -5 0 -13 6 -17 8 -5 9 -3 4 6 -6 10 -4 12 9 7 10 -4
15 -3 11 3 -8 13 -22 13 -30 1z"/>
<path d="M2147 5247 c-3 -8 1 -14 8 -14 7 0 11 6 8 14 -3 7 -6 13 -8 13 -2 0
-5 -6 -8 -13z"/>
<path d="M3031 5247 c-8 -10 -7 -14 4 -14 8 0 11 5 8 10 -4 6 1 8 11 4 10 -4
15 -3 11 3 -8 14 -20 12 -34 -3z"/>
<path d="M3151 5247 c-8 -10 -7 -14 4 -14 8 0 11 5 8 10 -4 6 1 8 11 4 10 -4
15 -3 11 3 -8 14 -20 12 -34 -3z"/>
<path d="M1710 5234 c6 -6 7 -14 3 -17 -3 -4 -2 -7 4 -7 6 0 13 8 15 18 4 12
-1 18 -13 18 -12 0 -15 -4 -9 -12z"/>
<path d="M1833 5231 c10 -12 9 -14 -4 -9 -9 4 -16 1 -16 -8 0 -9 5 -10 15 -5
20 11 24 38 6 38 -11 0 -11 -3 -1 -16z"/>
<path d="M2073 5228 c-2 -18 0 -20 7 -8 12 18 13 30 2 30 -4 0 -9 -10 -9 -22z"/>
<path d="M2199 5240 c-4 -34 -3 -44 9 -46 7 -1 8 0 3 2 -5 3 -7 16 -5 30 2 13
2 24 -1 24 -3 0 -6 -4 -6 -10z"/>
<path d="M2628 5243 c6 -2 18 -2 25 0 6 3 1 5 -13 5 -14 0 -19 -2 -12 -5z"/>
<path d="M2759 5248 c-6 -20 -5 -38 2 -49 7 -10 8 -6 5 13 -3 15 1 29 7 32 9
3 9 5 0 5 -7 1 -13 0 -14 -1z"/>
<path d="M2794 5234 c3 -21 33 -39 33 -20 0 8 -7 12 -15 8 -10 -3 -13 -1 -8 6
3 6 2 13 -3 16 -5 4 -8 -1 -7 -10z"/>
<path d="M3593 5231 c10 -12 9 -14 -4 -9 -9 4 -16 1 -16 -7 0 -10 5 -11 19 -4
10 6 16 14 13 19 -3 4 1 10 7 13 7 3 3 4 -9 4 -18 -1 -20 -4 -10 -16z"/>
<path d="M3725 5242 c-13 -9 -15 -52 -3 -52 5 0 8 6 5 13 -2 6 0 20 5 30 10
19 8 21 -7 9z"/>
<path d="M3827 5233 c4 -10 2 -14 -4 -10 -5 3 -10 0 -10 -8 0 -13 4 -12 19 2
22 19 22 19 4 26 -11 4 -13 1 -9 -10z"/>
<path d="M1054 5220 c0 -12 4 -16 11 -11 5 5 18 7 28 6 9 -2 17 1 17 7 0 5 -6
8 -12 5 -7 -2 -20 -1 -28 4 -11 5 -16 2 -16 -11z"/>
<path d="M1141 5224 c0 -11 3 -14 6 -6 3 7 2 16 -1 19 -3 4 -6 -2 -5 -13z"/>
<path d="M1171 5224 c0 -11 3 -14 6 -6 3 7 2 16 -1 19 -3 4 -6 -2 -5 -13z"/>
<path d="M1251 5231 c-8 -5 -20 -7 -28 -4 -7 3 -13 1 -13 -5 0 -6 8 -9 18 -7
9 1 22 -1 27 -6 7 -5 11 0 11 12 0 10 0 19 -1 19 0 0 -6 -4 -14 -9z"/>
<path d="M1395 5231 c-3 -5 -2 -12 3 -15 5 -3 9 1 9 9 0 17 -3 19 -12 6z"/>
<path d="M1534 5220 c0 -12 4 -16 11 -11 5 5 18 7 28 6 9 -2 17 1 17 7 0 5 -6
8 -12 5 -7 -2 -20 -1 -28 4 -11 5 -16 2 -16 -11z"/>
<path d="M2251 5231 c-19 -12 -22 -38 -5 -38 11 0 11 3 1 16 -10 12 -9 14 4 9
10 -4 16 -1 16 8 0 8 -1 14 -1 14 -1 0 -7 -4 -15 -9z"/>
<path d="M2291 5224 c0 -11 3 -14 6 -6 3 7 2 16 -1 19 -3 4 -6 -2 -5 -13z"/>
<path d="M2371 5231 c-8 -5 -20 -7 -28 -4 -7 3 -13 1 -13 -5 0 -6 8 -9 18 -7
9 1 22 -1 27 -6 7 -5 11 0 11 12 0 10 0 19 -1 19 0 0 -6 -4 -14 -9z"/>
<path d="M2495 5230 c-4 -6 -11 -8 -16 -5 -5 3 -6 -2 -2 -11 4 -12 3 -15 -5
-10 -8 5 -10 1 -5 -10 4 -11 8 -13 11 -6 2 7 8 10 13 7 5 -4 6 2 2 11 -4 10
-2 15 4 11 5 -3 10 0 10 8 0 18 -3 19 -12 5z"/>
<path d="M2878 5233 c7 -3 16 -2 19 1 4 3 -2 6 -13 5 -11 0 -14 -3 -6 -6z"/>
<path d="M3286 5231 c-19 -7 -19 -8 0 -13 13 -3 21 0 21 8 0 8 -1 14 -1 13 -1
0 -10 -4 -20 -8z"/>
<path d="M3331 5224 c0 -11 3 -14 6 -6 3 7 2 16 -1 19 -3 4 -6 -2 -5 -13z"/>
<path d="M3411 5231 c-8 -5 -20 -7 -28 -4 -7 3 -13 1 -13 -5 0 -6 8 -9 18 -7
9 1 22 -1 27 -6 7 -5 11 0 11 12 0 10 0 19 -1 19 0 0 -6 -4 -14 -9z"/>
<path d="M3875 5231 c-3 -5 -2 -12 3 -15 5 -3 9 1 9 9 0 17 -3 19 -12 6z"/>
<path d="M3995 5229 c-4 -6 -5 -12 -2 -15 2 -3 7 2 10 11 7 17 1 20 -8 4z"/>
<path d="M4171 5231 c-19 -12 -22 -38 -5 -38 11 0 11 3 1 16 -10 12 -9 14 4 9
10 -4 16 -1 16 8 0 8 -1 14 -1 14 -1 0 -7 -4 -15 -9z"/>
<path d="M4211 5224 c0 -11 3 -14 6 -6 3 7 2 16 -1 19 -3 4 -6 -2 -5 -13z"/>
<path d="M4300 5232 c0 -6 -11 -9 -27 -6 -15 3 -25 3 -22 -1 12 -11 49 -14 55
-4 3 6 3 13 0 16 -3 4 -6 1 -6 -5z"/>
<path d="M4406 5231 c-19 -7 -19 -8 0 -13 13 -3 21 0 21 8 0 8 -1 14 -1 13 -1
0 -10 -4 -20 -8z"/>
<path d="M4451 5224 c0 -11 3 -14 6 -6 3 7 2 16 -1 19 -3 4 -6 -2 -5 -13z"/>
<path d="M1316 5222 c-3 -5 1 -9 9 -9 8 0 12 4 9 9 -3 4 -7 8 -9 8 -2 0 -6 -4
-9 -8z"/>
<path d="M1612 5221 c-11 -7 -11 -9 0 -14 9 -3 15 1 15 9 0 8 -1 14 -1 14 -1
0 -7 -4 -14 -9z"/>
<path d="M1948 5212 c-4 -12 1 -18 13 -18 12 0 15 4 9 12 -6 6 -7 14 -3 17 3
4 2 7 -4 7 -6 0 -13 -8 -15 -18z"/>
<path d="M2615 5220 c5 -8 42 -6 50 1 2 3 -8 5 -25 5 -16 0 -27 -3 -25 -6z"/>
<path d="M2851 5214 c0 -11 3 -14 6 -6 3 7 2 16 -1 19 -3 4 -6 -2 -5 -13z"/>
<path d="M2996 5222 c-3 -5 1 -9 9 -9 8 0 12 4 9 9 -3 4 -7 8 -9 8 -2 0 -6 -4
-9 -8z"/>
<path d="M3111 5214 c7 -8 6 -13 -3 -16 -8 -3 -6 -7 6 -11 9 -4 15 -3 11 2 -3
5 1 12 7 14 10 4 10 6 0 6 -7 1 -11 5 -8 9 3 5 -1 9 -9 9 -11 0 -12 -4 -4 -13z"/>
<path d="M3187 5219 c7 -9 10 -19 6 -22 -3 -4 -1 -7 5 -7 17 0 15 16 -5 31
-16 12 -17 12 -6 -2z"/>
<path d="M3514 5222 c3 -5 0 -13 -6 -15 -9 -4 -10 -6 -1 -6 17 -1 25 16 12 25
-7 4 -9 3 -5 -4z"/>
<path d="M3919 5228 c-6 -20 -6 -39 0 -42 4 -3 7 6 7 20 0 20 -4 32 -7 22z"/>
<path d="M4036 5222 c-3 -5 1 -9 9 -9 8 0 12 4 9 9 -3 4 -7 8 -9 8 -2 0 -6 -4
-9 -8z"/>
<path d="M1438 5202 c-17 -7 -17 -8 2 -19 14 -9 21 -10 26 -1 5 7 3 8 -6 3
-10 -6 -12 -4 -7 8 3 10 5 17 4 16 -1 0 -10 -4 -19 -7z"/>
<path d="M1510 5201 c0 -6 4 -13 10 -16 6 -3 7 1 4 9 -7 18 -14 21 -14 7z"/>
<path d="M1916 5198 c5 -7 2 -9 -8 -6 -8 4 -15 0 -15 -7 0 -10 5 -11 19 -4 16
9 17 29 2 29 -3 0 -2 -5 2 -12z"/>
<path d="M2029 5192 c11 -20 38 -24 38 -6 0 11 -3 11 -16 1 -12 -10 -14 -9 -9
4 4 9 1 16 -8 16 -9 0 -10 -5 -5 -15z"/>
<path d="M2115 5201 c6 -10 4 -13 -6 -9 -10 4 -15 -1 -16 -16 0 -11 1 -15 4
-8 3 9 9 10 17 3 9 -8 12 -6 11 9 -1 11 -5 23 -10 27 -4 5 -4 2 0 -6z"/>
<path d="M2908 5196 c11 -17 9 -70 -3 -79 -6 -5 -4 -7 5 -4 10 2 15 15 14 36
0 20 4 30 11 27 6 -2 12 2 12 9 0 8 -7 11 -15 7 -9 -3 -13 -1 -9 5 3 5 0 10
-8 10 -8 0 -11 -5 -7 -11z"/>
<path d="M3268 5192 c4 -10 7 -12 10 -4 2 7 9 9 15 5 7 -3 8 -2 4 2 -14 16
-36 14 -29 -3z"/>
<path d="M3436 5193 c-6 -14 -5 -15 5 -6 7 7 10 15 7 18 -3 3 -9 -2 -12 -12z"/>
<path d="M4236 5198 c3 -5 10 -6 15 -3 13 9 11 12 -6 12 -8 0 -12 -4 -9 -9z"/>
<path d="M4388 5192 c4 -10 7 -12 10 -4 2 7 9 9 15 5 7 -3 8 -2 4 2 -14 16
-36 14 -29 -3z"/>
<path d="M1034 5191 c4 -5 3 -11 -1 -14 -5 -2 -3 -3 3 -1 6 1 18 -3 25 -9 7
-7 5 -2 -5 11 -19 22 -32 30 -22 13z"/>
<path d="M1293 5184 c1 -15 6 -20 16 -16 8 3 12 1 8 -5 -3 -5 0 -10 8 -10 11
0 12 4 4 13 -6 7 -7 19 -3 26 6 11 5 11 -8 0 -13 -10 -17 -10 -21 0 -3 7 -4 3
-4 -8z"/>
<path d="M2571 5191 c-8 -5 -26 -7 -40 -4 -14 2 -23 1 -19 -2 3 -4 12 -7 20
-9 7 -1 19 -6 27 -10 10 -7 12 -6 6 4 -6 9 -4 12 7 8 9 -4 15 0 15 8 0 8 -1
14 -1 14 -1 0 -7 -4 -15 -9z"/>
<path d="M2693 5185 c0 -8 7 -11 16 -7 13 5 14 3 4 -9 -10 -12 -8 -15 6 -15
12 0 17 5 13 15 -3 8 -1 12 5 8 5 -3 10 1 10 9 0 10 -4 11 -10 5 -6 -6 -17 -7
-27 -1 -12 6 -17 5 -17 -5z"/>
<path d="M3653 5185 c0 -8 7 -11 16 -7 13 5 14 3 4 -9 -10 -12 -8 -15 6 -15
12 0 17 5 13 15 -4 10 -1 12 9 6 8 -4 12 -6 9 -2 -3 3 -9 6 -15 7 -5 1 -17 6
-26 10 -11 6 -16 5 -16 -5z"/>
<path d="M3837 5190 c7 -8 23 -15 35 -17 12 -2 19 -1 16 3 -3 3 -12 6 -20 8
-7 1 -20 5 -28 10 -12 7 -13 6 -3 -4z"/>
<path d="M4492 5191 c-11 -7 -11 -9 0 -14 9 -3 15 1 15 9 0 8 -1 14 -1 14 -1
0 -7 -4 -14 -9z"/>
<path d="M1117 5178 c-7 -5 0 -6 17 -4 16 3 31 7 33 10 8 8 -37 2 -50 -6z"/>
<path d="M1645 5179 c-3 -4 2 -6 10 -5 21 3 28 13 10 13 -9 0 -18 -4 -20 -8z"/>
<path d="M1980 5180 c-9 -6 -10 -10 -3 -10 6 0 15 5 18 10 8 12 4 12 -15 0z"/>
<path d="M2166 5178 c3 -4 9 -8 15 -8 5 0 9 4 9 8 0 5 -7 9 -15 9 -8 0 -12 -4
-9 -9z"/>
<path d="M2394 5159 c-2 -35 5 -33 12 5 2 14 1 26 -3 26 -5 0 -9 -14 -9 -31z"/>
<path d="M2963 5178 c-3 -6 -1 -8 5 -4 5 3 13 0 15 -6 4 -10 6 -10 6 0 1 8 6
10 14 6 6 -4 8 -3 4 1 -12 13 -36 15 -44 3z"/>
<path d="M3050 5182 c0 -4 10 -9 22 -9 18 -2 20 0 8 7 -18 12 -30 13 -30 2z"/>
<path d="M3320 5180 c18 -12 30 -13 30 -2 0 4 -10 9 -22 9 -18 2 -20 0 -8 -7z"/>
<path d="M3381 5174 c0 -11 3 -14 6 -6 3 7 2 16 -1 19 -3 4 -6 -2 -5 -13z"/>
<path d="M3477 5183 c-2 -5 -3 -19 -2 -33 0 -14 -4 -29 -10 -33 -6 -5 -4 -7 5
-5 9 3 15 18 15 41 1 37 0 44 -8 30z"/>
<path d="M3505 5180 c-3 -6 1 -7 9 -4 18 7 21 14 7 14 -6 0 -13 -4 -16 -10z"/>
<path d="M3766 5179 c4 -8 30 -6 38 2 3 3 -5 5 -19 5 -13 0 -22 -3 -19 -7z"/>
<path d="M4013 5174 c0 -11 3 -11 16 -1 12 10 14 9 9 -4 -4 -9 -1 -16 8 -16 9
0 10 5 5 15 -11 20 -38 24 -38 6z"/>
<path d="M4185 5180 c-3 -6 1 -7 9 -4 18 7 21 14 7 14 -6 0 -13 -4 -16 -10z"/>
<path d="M4313 5170 c-1 -11 2 -20 5 -20 4 0 8 9 9 20 1 11 -2 20 -5 20 -4 0
-8 -9 -9 -20z"/>
<path d="M4440 5180 c18 -12 30 -13 30 -2 0 4 -10 9 -22 9 -18 2 -20 0 -8 -7z"/>
<path d="M1195 5171 c-3 -5 -2 -12 3 -15 5 -3 9 1 9 9 0 17 -3 19 -12 6z"/>
<path d="M2230 5170 c-9 -6 -10 -10 -3 -10 6 0 15 5 18 10 8 12 4 12 -15 0z"/>
<path d="M2315 5171 c-6 -11 13 -26 22 -17 4 3 1 6 -6 6 -7 0 -9 5 -6 10 3 6
4 10 1 10 -3 0 -7 -4 -11 -9z"/>
<path d="M4232 5171 c-11 -6 -9 -9 6 -13 15 -4 19 -2 15 8 -6 16 -4 16 -21 5z"/>
<path d="M1165 5162 c-13 -9 -15 -52 -3 -52 5 0 8 6 5 13 -2 6 0 20 5 30 10
19 8 21 -7 9z"/>
<path d="M1389 5155 c5 -5 7 -18 6 -27 -2 -10 1 -18 7 -18 5 0 8 6 5 13 -2 6
-1 19 4 27 5 11 2 16 -11 16 -12 0 -16 -4 -11 -11z"/>
<path d="M1475 5143 c0 -15 6 -28 13 -29 7 -1 8 0 3 2 -5 3 -7 16 -5 30 2 13
0 24 -4 24 -5 0 -8 -12 -7 -27z"/>
<path d="M1903 5157 c-4 -6 -1 -7 7 -2 10 6 12 4 6 -11 -4 -10 -4 -15 0 -11 4
4 12 2 19 -3 8 -7 12 -5 12 5 0 8 -5 11 -10 8 -6 -4 -8 0 -5 9 7 16 -19 21
-29 5z"/>
<path d="M2269 5155 c5 -5 7 -18 6 -27 -2 -10 1 -18 7 -18 5 0 8 6 5 13 -2 6
-1 19 4 27 5 11 2 16 -11 16 -12 0 -16 -4 -11 -11z"/>
<path d="M2466 5161 c-4 -5 3 -7 14 -4 23 6 26 13 6 13 -8 0 -17 -4 -20 -9z"/>
<path d="M3108 5152 c3 -9 1 -13 -5 -9 -5 3 -10 0 -10 -8 0 -8 5 -11 11 -7 17
11 70 9 79 -3 5 -6 7 -4 4 5 -2 10 -15 15 -36 14 -20 0 -30 4 -27 11 2 6 -2
12 -9 12 -8 0 -11 -7 -7 -15z"/>
<path d="M3266 5161 c-4 -5 3 -7 14 -4 23 6 26 13 6 13 -8 0 -17 -4 -20 -9z"/>
<path d="M4117 5163 c-2 -5 -3 -21 -2 -36 1 -18 -2 -26 -10 -23 -6 2 -12 -2
-12 -9 0 -8 7 -11 15 -7 9 3 13 1 9 -5 -3 -5 0 -10 8 -10 8 0 11 5 7 11 -11
17 -9 70 3 78 6 5 6 8 -2 8 -6 0 -14 -3 -16 -7z"/>
<path d="M4383 5157 c-4 -6 -1 -7 7 -2 10 6 12 4 6 -11 -4 -10 -4 -15 0 -11 4
4 14 1 23 -6 14 -10 14 -10 3 5 -8 9 -11 21 -8 26 3 5 -2 9 -10 9 -8 0 -18 -5
-21 -10z"/>
<path d="M1532 5151 c-11 -7 -11 -9 0 -14 9 -3 15 1 15 9 0 8 -1 14 -1 14 -1
0 -7 -4 -14 -9z"/>
<path d="M1660 5153 c0 -6 -15 -9 -36 -7 -20 2 -34 1 -31 -3 10 -10 67 -11 73
-1 3 5 3 12 0 15 -3 4 -6 2 -6 -4z"/>
<path d="M1815 5151 c-3 -6 -14 -8 -25 -6 -11 2 -20 -1 -20 -6 0 -6 6 -9 13
-6 6 2 19 1 27 -4 12 -5 16 -2 16 12 0 21 -2 23 -11 10z"/>
<path d="M2060 5151 c0 -5 -13 -7 -30 -6 -16 1 -28 -1 -25 -5 7 -11 58 -5 63
8 2 7 1 12 -2 12 -3 0 -6 -4 -6 -9z"/>
<path d="M2814 5140 c0 -12 4 -16 11 -11 5 5 18 7 28 6 9 -2 17 1 17 7 0 5 -6
8 -12 5 -7 -2 -20 -1 -28 4 -11 5 -16 2 -16 -11z"/>
<path d="M3013 5145 c0 -8 5 -11 10 -8 6 4 8 0 4 -10 -4 -11 -2 -14 9 -10 13
5 13 8 -2 24 -21 23 -21 23 -21 4z"/>
<path d="M3413 5144 c0 -7 5 -10 10 -7 6 4 8 0 5 -9 -4 -8 -1 -15 6 -15 18 0
15 23 -4 35 -12 7 -17 7 -17 -4z"/>
<path d="M3575 5151 c-3 -6 -14 -8 -25 -6 -11 2 -20 -1 -20 -6 0 -6 6 -9 13
-6 6 2 19 1 27 -4 12 -5 16 -2 16 12 0 21 -2 23 -11 10z"/>
<path d="M3835 5151 c-3 -5 -2 -12 3 -15 5 -3 9 1 9 9 0 17 -3 19 -12 6z"/>
<path d="M3975 5151 c-3 -6 -14 -8 -25 -6 -11 2 -20 -1 -20 -6 0 -6 6 -9 13
-6 6 2 19 1 27 -4 12 -5 16 -2 16 12 0 21 -2 23 -11 10z"/>
<path d="M1056 5135 c-9 -26 -7 -32 5 -12 6 10 9 21 6 23 -2 3 -7 -2 -11 -11z"/>
<path d="M1270 5140 c0 -5 5 -10 10 -10 6 0 10 5 10 10 0 6 -4 10 -10 10 -5 0
-10 -4 -10 -10z"/>
<path d="M1676 5133 c-6 -14 -5 -15 5 -6 7 7 10 15 7 18 -3 3 -9 -2 -12 -12z"/>
<path d="M1876 5142 c-3 -5 1 -9 9 -9 8 0 12 4 9 9 -3 4 -7 8 -9 8 -2 0 -6 -4
-9 -8z"/>
<path d="M2116 5138 c3 -5 10 -6 15 -3 13 9 11 12 -6 12 -8 0 -12 -4 -9 -9z"/>
<path d="M2436 5142 c-3 -5 1 -9 9 -9 8 0 12 4 9 9 -3 4 -7 8 -9 8 -2 0 -6 -4
-9 -8z"/>
<path d="M2476 5142 c-3 -5 1 -9 9 -9 8 0 12 4 9 9 -3 4 -7 8 -9 8 -2 0 -6 -4
-9 -8z"/>
<path d="M2558 5132 c-11 -15 -11 -15 2 -6 8 6 23 10 33 8 11 -1 16 0 13 4
-13 12 -36 10 -48 -6z"/>
<path d="M2654 5138 c-3 -5 -3 -12 0 -15 3 -4 6 -1 6 5 0 6 10 9 21 7 12 -3
19 -1 15 2 -11 11 -35 12 -42 1z"/>
<path d="M3236 5142 c-3 -5 1 -9 9 -9 8 0 12 4 9 9 -3 4 -7 8 -9 8 -2 0 -6 -4
-9 -8z"/>
<path d="M3276 5142 c-3 -5 1 -9 9 -9 8 0 12 4 9 9 -3 4 -7 8 -9 8 -2 0 -6 -4
-9 -8z"/>
<path d="M3614 5138 c-3 -5 -3 -12 0 -15 3 -4 6 -1 6 5 0 6 10 9 21 7 12 -3
19 -1 15 2 -11 11 -35 12 -42 1z"/>
<path d="M3796 5138 c3 -5 10 -6 15 -3 13 9 11 12 -6 12 -8 0 -12 -4 -9 -9z"/>
<path d="M3861 5134 c0 -11 3 -14 6 -6 3 7 2 16 -1 19 -3 4 -6 -2 -5 -13z"/>
<path d="M3893 5135 c0 -7 6 -11 14 -8 7 3 13 6 13 8 0 2 -6 5 -13 8 -8 3 -14
-1 -14 -8z"/>
<path d="M4195 5141 c-3 -5 -2 -12 3 -15 5 -3 9 1 9 9 0 17 -3 19 -12 6z"/>
<path d="M4356 5142 c-3 -5 1 -9 9 -9 8 0 12 4 9 9 -3 4 -7 8 -9 8 -2 0 -6 -4
-9 -8z"/>
<path d="M1230 5110 c5 -10 6 -21 2 -26 -4 -5 0 -3 10 4 13 10 17 10 21 0 3
-7 4 -3 4 9 -1 18 -4 20 -16 10 -12 -10 -14 -9 -9 4 4 9 1 16 -7 16 -10 0 -11
-5 -5 -17z"/>
<path d="M1348 5123 c7 -3 16 -2 19 1 4 3 -2 6 -13 5 -11 0 -14 -3 -6 -6z"/>
<path d="M1516 5122 c-3 -5 1 -9 9 -9 8 0 12 4 9 9 -3 4 -7 8 -9 8 -2 0 -6 -4
-9 -8z"/>
<path d="M1718 5108 c2 -10 6 -18 7 -18 1 0 5 8 7 18 3 11 0 19 -7 19 -7 0
-10 -8 -7 -19z"/>
<path d="M1996 5118 c5 -7 2 -9 -9 -5 -11 4 -14 2 -10 -9 4 -11 9 -12 19 -3
12 10 11 29 -2 29 -3 0 -2 -5 2 -12z"/>
<path d="M2073 5123 c4 -3 1 -13 -6 -22 -11 -14 -10 -14 6 -2 20 15 22 31 5
31 -6 0 -8 -3 -5 -7z"/>
<path d="M2157 5106 c10 -12 18 -22 19 -24 1 -1 4 6 7 17 3 15 1 18 -11 14 -9
-4 -13 -2 -9 4 3 5 0 10 -8 10 -12 0 -12 -4 2 -21z"/>
<path d="M2347 5113 c3 -7 6 -13 8 -13 2 0 5 6 8 13 3 8 -1 14 -8 14 -7 0 -11
-6 -8 -14z"/>
<path d="M2754 5111 c13 -12 18 -13 28 -2 11 10 9 11 -6 5 -12 -5 -17 -4 -13
3 3 5 -1 10 -9 10 -13 0 -13 -2 0 -16z"/>
<path d="M3708 5116 c4 -6 7 -14 7 -18 0 -3 4 -10 9 -15 6 -5 6 -2 1 6 -6 10
-4 13 7 9 8 -4 15 -1 15 7 0 8 -7 11 -15 7 -9 -3 -13 -1 -9 5 3 5 0 10 -8 10
-8 0 -11 -5 -7 -11z"/>
<path d="M3831 5113 c12 -14 12 -16 -2 -11 -9 4 -16 1 -16 -7 0 -11 5 -11 19
-4 15 8 17 13 7 25 -6 8 -14 14 -16 14 -3 0 1 -8 8 -17z"/>
<path d="M4068 5123 c7 -3 16 -2 19 1 4 3 -2 6 -13 5 -11 0 -14 -3 -6 -6z"/>
<path d="M4276 5122 c-2 -4 -1 -14 4 -22 7 -11 9 -9 7 8 -1 24 -3 26 -11 14z"/>
<path d="M4477 5117 c4 -6 0 -8 -9 -5 -8 4 -15 1 -15 -7 0 -8 7 -11 16 -7 13
5 14 3 4 -9 -10 -13 -10 -16 1 -16 8 0 13 7 11 16 -1 9 1 21 6 27 5 7 3 11 -6
11 -8 0 -11 -5 -8 -10z"/>
<path d="M1838 5096 c-13 -18 -13 -23 -3 -23 8 0 11 5 8 10 -4 6 0 8 9 4 12
-4 14 -1 11 14 -6 23 -4 23 -25 -5z"/>
<path d="M1875 5111 c-3 -5 -2 -12 3 -15 5 -3 9 1 9 9 0 17 -3 19 -12 6z"/>
<path d="M2375 5109 c-4 -6 -5 -12 -2 -15 2 -3 7 2 10 11 7 17 1 20 -8 4z"/>
<path d="M2402 5100 c-11 -19 1 -40 15 -26 4 3 1 6 -7 6 -10 0 -10 3 0 15 7 9
11 17 9 20 -3 2 -10 -4 -17 -15z"/>
<path d="M2435 5109 c-4 -6 -5 -12 -2 -15 2 -3 7 2 10 11 7 17 1 20 -8 4z"/>
<path d="M2533 5105 c0 -7 6 -11 14 -8 7 3 13 6 13 8 0 2 -6 5 -13 8 -8 3 -14
-1 -14 -8z"/>
<path d="M2997 5113 c-10 -9 -9 -23 1 -23 5 0 9 7 9 15 0 17 -1 18 -10 8z"/>
<path d="M3052 5111 c-11 -6 -10 -10 0 -19 11 -8 14 -7 14 9 0 10 0 19 -1 19
0 0 -6 -4 -13 -9z"/>
<path d="M3213 5104 c1 -15 6 -20 16 -16 8 3 12 1 8 -5 -3 -5 0 -10 8 -10 11
0 12 4 4 13 -6 7 -7 19 -3 26 6 11 5 11 -8 0 -13 -10 -17 -10 -21 0 -3 7 -4 3
-4 -8z"/>
<path d="M3334 5099 c0 -13 3 -15 13 -7 7 6 13 12 13 13 0 2 -6 5 -13 8 -7 3
-13 -3 -13 -14z"/>
<path d="M4170 5105 c-10 -13 -11 -18 -1 -28 10 -9 11 -8 5 7 -5 12 -4 17 3
13 5 -3 10 0 10 8 0 19 -2 19 -17 0z"/>
<path d="M4300 5113 c0 -7 5 -15 11 -19 8 -4 7 -9 -2 -15 -10 -6 -10 -9 -2 -9
19 0 22 14 7 35 -8 10 -14 14 -14 8z"/>
<path d="M4355 5110 c-4 -6 -11 -7 -17 -4 -7 4 -8 2 -4 -5 6 -9 11 -9 22 0 14
11 18 19 10 19 -3 0 -8 -5 -11 -10z"/>
<path d="M1065 5100 c-3 -6 1 -7 9 -4 18 7 21 14 7 14 -6 0 -13 -4 -16 -10z"/>
<path d="M1115 5094 c-10 -8 -14 -14 -8 -14 7 0 15 5 19 11 4 8 9 7 15 -2 6
-10 9 -10 9 -2 0 19 -14 22 -35 7z"/>
<path d="M1354 5102 c4 -3 14 -7 22 -8 9 -1 13 0 10 4 -4 3 -14 7 -22 8 -9 1
-13 0 -10 -4z"/>
<path d="M1545 5100 c-3 -6 1 -7 9 -4 18 7 21 14 7 14 -6 0 -13 -4 -16 -10z"/>
<path d="M1621 5094 c0 -11 3 -14 6 -6 3 7 2 16 -1 19 -3 4 -6 -2 -5 -13z"/>
<path d="M2015 5099 c-4 -6 -4 -13 -1 -16 3 -4 6 -1 6 7 0 10 4 10 18 -1 15
-13 16 -12 3 4 -16 20 -18 20 -26 6z"/>
<path d="M2119 5092 c-13 -15 -12 -16 3 -4 13 10 17 10 21 0 4 -9 6 -9 6 -1 2
20 -16 24 -30 5z"/>
<path d="M2195 5101 c-3 -5 -2 -12 3 -15 5 -3 9 1 9 9 0 17 -3 19 -12 6z"/>
<path d="M2319 5093 c-13 -16 -12 -17 4 -4 9 7 17 15 17 17 0 8 -8 3 -21 -13z"/>
<path d="M2617 5096 c-4 -11 -1 -13 10 -9 12 5 14 3 8 -7 -5 -9 -4 -11 4 -6 9
6 9 11 0 22 -14 17 -16 17 -22 0z"/>
<path d="M2656 5098 c3 -5 10 -6 15 -3 13 9 11 12 -6 12 -8 0 -12 -4 -9 -9z"/>
<path d="M2720 5100 c-9 -6 -10 -10 -3 -10 6 0 15 5 18 10 8 12 4 12 -15 0z"/>
<path d="M3152 5090 c-7 -12 -7 -17 4 -17 7 0 10 5 7 10 -4 6 0 8 9 5 8 -4 15
-1 15 6 0 18 -23 15 -35 -4z"/>
<path d="M3390 5100 c0 -5 5 -10 10 -10 6 0 10 5 10 10 0 6 -4 10 -10 10 -5 0
-10 -4 -10 -10z"/>
<path d="M3576 5102 c-3 -5 1 -9 9 -9 8 0 12 4 9 9 -3 4 -7 8 -9 8 -2 0 -6 -4
-9 -8z"/>
<path d="M3691 5094 c0 -11 3 -14 6 -6 3 7 2 16 -1 19 -3 4 -6 -2 -5 -13z"/>
<path d="M4387 5099 c7 -7 15 -10 18 -7 3 3 -2 9 -12 12 -14 6 -15 5 -6 -5z"/>
<path d="M2479 5098 c-5 -19 -8 -50 -4 -46 7 7 15 48 9 48 -2 0 -4 -1 -5 -2z"/>
<path d="M1075 5081 c-3 -5 -2 -12 3 -15 5 -3 9 1 9 9 0 17 -3 19 -12 6z"/>
<path d="M1438 5083 c7 -3 16 -2 19 1 4 3 -2 6 -13 5 -11 0 -14 -3 -6 -6z"/>
<path d="M1559 5088 c-6 -21 -6 -39 1 -43 5 -3 7 3 6 12 -2 10 2 21 8 25 8 5
7 8 -1 8 -7 0 -13 -1 -14 -2z"/>
<path d="M2545 5080 c-3 -6 1 -7 9 -4 18 7 21 14 7 14 -6 0 -13 -4 -16 -10z"/>
<path d="M2908 5072 c5 -9 7 -23 5 -29 -3 -7 -1 -13 4 -13 14 0 10 49 -4 54
-10 4 -11 1 -5 -12z"/>
<path d="M3027 5079 c7 -7 15 -10 18 -7 3 3 -2 9 -12 12 -14 6 -15 5 -6 -5z"/>
<path d="M3362 5082 c-10 -7 -8 -12 6 -25 15 -14 19 -14 19 -2 0 8 -5 11 -10
8 -6 -4 -8 0 -4 10 7 19 7 20 -11 9z"/>
<path d="M3479 5085 c-7 -29 -2 -92 8 -92 6 0 9 7 5 15 -10 27 -9 67 2 74 7 5
7 8 -1 8 -7 0 -14 -2 -14 -5z"/>
<path d="M4230 5081 c0 -5 8 -15 18 -22 15 -12 16 -12 5 2 -7 9 -10 19 -6 22
3 4 1 7 -5 7 -7 0 -12 -4 -12 -9z"/>
<path d="M1294 5059 c0 -12 4 -15 12 -9 6 6 14 7 17 3 4 -3 7 -2 7 4 0 6 -8
13 -18 15 -12 4 -18 -1 -18 -13z"/>
<path d="M1413 5066 c0 -6 10 -11 23 -11 25 0 23 10 -4 17 -10 3 -19 0 -19 -6z"/>
<path d="M1653 5067 c0 -19 89 -15 94 3 3 10 1 11 -4 4 -8 -11 -48 -12 -75 -2
-8 4 -15 1 -15 -5z"/>
<path d="M2235 5070 c-3 -6 1 -7 9 -4 18 7 21 14 7 14 -6 0 -13 -4 -16 -10z"/>
<path d="M2334 5060 c0 -13 5 -16 16 -11 8 5 21 6 28 4 6 -3 12 0 12 5 0 6 -8
9 -17 7 -10 -1 -23 1 -28 6 -7 5 -11 1 -11 -11z"/>
<path d="M2567 5066 c-15 -12 -16 -15 -2 -26 13 -11 14 -10 9 5 -5 11 -4 16 3
12 5 -3 10 0 10 8 0 8 -1 15 -1 15 -1 0 -9 -7 -19 -14z"/>
<path d="M2734 5059 c0 -12 4 -15 12 -9 6 6 14 7 17 3 4 -3 7 -2 7 4 0 6 -8
13 -18 15 -12 4 -18 -1 -18 -13z"/>
<path d="M2821 5064 c0 -11 3 -14 6 -6 3 7 2 16 -1 19 -3 4 -6 -2 -5 -13z"/>
<path d="M2851 5064 c0 -11 3 -14 6 -6 3 7 2 16 -1 19 -3 4 -6 -2 -5 -13z"/>
<path d="M3077 5073 c-8 -17 -1 -37 13 -40 10 -3 11 -2 4 4 -6 4 -10 16 -8 26
2 18 -2 23 -9 10z"/>
<path d="M3313 5065 c0 -8 4 -12 9 -9 5 3 6 10 3 15 -9 13 -12 11 -12 -6z"/>
<path d="M3541 5064 c0 -11 3 -14 6 -6 3 7 2 16 -1 19 -3 4 -6 -2 -5 -13z"/>
<path d="M3571 5064 c0 -11 3 -14 6 -6 3 7 2 16 -1 19 -3 4 -6 -2 -5 -13z"/>
<path d="M3655 5070 c-4 -6 -11 -8 -16 -5 -5 4 -9 2 -9 -3 0 -5 8 -12 18 -14
12 -4 18 1 18 13 0 22 -2 23 -11 9z"/>
<path d="M3895 5071 c-3 -6 -14 -8 -25 -6 -11 2 -20 -1 -20 -6 0 -6 6 -9 13
-6 6 2 19 1 27 -4 12 -5 16 -2 16 12 0 21 -2 23 -11 10z"/>
<path d="M3958 5073 c7 -3 16 -2 19 1 4 3 -2 6 -13 5 -11 0 -14 -3 -6 -6z"/>
<path d="M4051 5071 c-8 -5 -20 -7 -28 -4 -7 3 -13 1 -13 -5 0 -6 8 -9 18 -7
9 1 22 -1 27 -6 7 -5 11 0 11 12 0 10 0 19 -1 19 0 0 -6 -4 -14 -9z"/>
<path d="M1105 5060 c-3 -6 1 -7 9 -4 18 7 21 14 7 14 -6 0 -13 -4 -16 -10z"/>
<path d="M1173 5057 c-4 -6 -1 -7 7 -2 10 6 12 4 7 -9 -4 -9 -3 -15 2 -11 5 3
11 0 13 -7 3 -7 7 -5 11 6 5 11 3 15 -5 10 -7 -5 -9 -2 -6 8 7 16 -19 21 -29
5z"/>
<path d="M1226 5058 c3 -5 10 -6 15 -3 13 9 11 12 -6 12 -8 0 -12 -4 -9 -9z"/>
<path d="M1796 5062 c-3 -5 1 -9 9 -9 8 0 12 4 9 9 -3 4 -7 8 -9 8 -2 0 -6 -4
-9 -8z"/>
<path d="M1906 5058 c3 -5 10 -6 15 -3 13 9 11 12 -6 12 -8 0 -12 -4 -9 -9z"/>
<path d="M1946 5058 c3 -5 10 -6 15 -3 13 9 11 12 -6 12 -8 0 -12 -4 -9 -9z"/>
<path d="M2036 5058 c3 -5 10 -6 15 -3 13 9 11 12 -6 12 -8 0 -12 -4 -9 -9z"/>
<path d="M2106 5058 c3 -5 10 -6 15 -3 13 9 11 12 -6 12 -8 0 -12 -4 -9 -9z"/>
<path d="M2196 5058 c3 -5 10 -6 15 -3 13 9 11 12 -6 12 -8 0 -12 -4 -9 -9z"/>
<path d="M2516 5062 c-3 -5 1 -9 9 -9 8 0 12 4 9 9 -3 4 -7 8 -9 8 -2 0 -6 -4
-9 -8z"/>
<path d="M2645 5060 c-2 -4 8 -6 23 -5 15 1 31 -3 35 -9 6 -7 7 -6 5 4 -4 14
-55 23 -63 10z"/>
<path d="M3013 5055 c0 -7 6 -11 14 -8 7 3 13 6 13 8 0 2 -6 5 -13 8 -8 3 -14
-1 -14 -8z"/>
<path d="M3119 5068 c-6 -22 -5 -39 3 -45 6 -3 8 -1 4 5 -3 5 0 13 6 15 10 4
10 6 0 6 -7 1 -10 6 -7 11 3 6 4 10 1 10 -3 0 -6 -1 -7 -2z"/>
<path d="M3187 5059 c7 -9 10 -19 6 -22 -3 -4 -1 -7 5 -7 17 0 15 16 -5 31
-16 12 -17 12 -6 -2z"/>
<path d="M3716 5058 c3 -5 10 -6 15 -3 13 9 11 12 -6 12 -8 0 -12 -4 -9 -9z"/>
<path d="M3754 5062 c4 -3 14 -7 22 -8 9 -1 13 0 10 4 -4 3 -14 7 -22 8 -9 1
-13 0 -10 -4z"/>
<path d="M4154 5062 c3 -5 0 -13 -6 -15 -9 -4 -10 -6 -1 -6 17 -1 25 16 12 25
-7 4 -9 3 -5 -4z"/>
<path d="M4318 5059 c-7 -4 3 -7 22 -5 19 2 39 -2 43 -8 6 -7 7 -6 5 4 -5 15
-49 22 -70 9z"/>
<path d="M4436 5062 c-3 -5 1 -9 9 -9 8 0 12 4 9 9 -3 4 -7 8 -9 8 -2 0 -6 -4
-9 -8z"/>
<path d="M1426 5042 c-3 -5 1 -9 9 -9 8 0 12 4 9 9 -3 4 -7 8 -9 8 -2 0 -6 -4
-9 -8z"/>
<path d="M1666 5042 c-3 -5 1 -9 9 -9 8 0 12 4 9 9 -3 4 -7 8 -9 8 -2 0 -6 -4
-9 -8z"/>
<path d="M1915 5040 c-16 -7 -17 -9 -3 -9 9 -1 20 4 23 9 7 11 7 11 -20 0z"/>
<path d="M2070 5036 c7 -7 13 -7 20 0 6 6 3 10 -10 10 -13 0 -16 -4 -10 -10z"/>
<path d="M2226 5038 c3 -5 10 -6 15 -3 13 9 11 12 -6 12 -8 0 -12 -4 -9 -9z"/>
<path d="M2267 5033 c3 -7 6 -13 8 -13 2 0 5 6 8 13 3 8 -1 14 -8 14 -7 0 -11
-6 -8 -14z"/>
<path d="M2428 5032 c10 -27 9 -67 -2 -75 -7 -5 -6 -7 4 -4 18 5 22 94 3 94
-6 0 -9 -7 -5 -15z"/>
<path d="M3267 5034 c2 -7 11 -10 19 -7 19 7 18 10 -5 16 -13 3 -18 1 -14 -9z"/>
<path d="M3748 5038 c5 -5 16 -8 23 -6 8 3 3 7 -10 11 -17 4 -21 3 -13 -5z"/>
<path d="M3958 5043 c7 -3 16 -2 19 1 4 3 -2 6 -13 5 -11 0 -14 -3 -6 -6z"/>
<path d="M4199 5048 c-5 -18 -6 -38 -1 -34 7 8 12 36 6 36 -2 0 -4 -1 -5 -2z"/>
<path d="M4277 5037 c4 -6 0 -8 -9 -4 -17 6 -19 -16 -3 -30 4 -5 5 -2 0 6 -6
11 -4 13 11 7 10 -4 15 -4 11 0 -4 4 -2 12 3 19 7 8 5 12 -5 12 -8 0 -11 -5
-8 -10z"/>
<path d="M1496 5028 c5 -8 1 -9 -12 -4 -10 4 -15 4 -11 0 4 -4 2 -12 -3 -19
-7 -8 -5 -12 5 -12 8 0 11 5 8 10 -4 6 1 8 11 4 9 -4 15 -3 11 2 -3 5 0 11 7
13 7 3 5 7 -6 11 -11 5 -15 3 -10 -5z"/>
<path d="M1539 5038 c-8 -26 -5 -36 9 -31 9 4 13 2 9 -4 -3 -5 0 -10 8 -10 10
0 12 4 5 12 -5 7 -7 15 -3 19 4 4 -1 4 -11 0 -14 -5 -17 -4 -12 4 4 7 5 12 2
12 -3 0 -6 -1 -7 -2z"/>
<path d="M1773 5024 c1 -15 6 -20 16 -16 8 3 12 1 8 -5 -3 -5 0 -10 8 -10 11
0 12 4 4 13 -6 7 -7 19 -3 26 6 11 5 11 -8 0 -13 -10 -17 -10 -21 0 -3 7 -4 3
-4 -8z"/>
<path d="M2295 5031 c-3 -5 -2 -12 3 -15 5 -3 9 1 9 9 0 17 -3 19 -12 6z"/>
<path d="M2455 5031 c-3 -5 -2 -12 3 -15 5 -3 9 1 9 9 0 17 -3 19 -12 6z"/>
<path d="M2487 5026 c-4 -9 -3 -15 2 -11 5 3 12 -1 14 -7 4 -10 6 -10 6 0 1 7
6 10 13 6 7 -4 8 -3 4 5 -4 6 -11 9 -16 6 -4 -3 -10 0 -12 7 -3 7 -7 5 -11 -6z"/>
<path d="M2980 5029 c0 -5 -6 -7 -12 -3 -7 4 -9 3 -5 -1 13 -15 36 -14 30 1
-6 17 -13 18 -13 3z"/>
<path d="M3039 5027 c8 -9 16 -15 19 -12 3 3 12 -1 21 -8 14 -11 14 -10 2 6
-8 9 -16 15 -19 12 -3 -3 -12 1 -21 8 -14 11 -14 10 -2 -6z"/>
<path d="M3355 5030 c-4 -6 -11 -8 -16 -5 -5 4 -9 1 -9 -4 0 -16 16 -13 30 4
7 8 10 15 7 15 -3 0 -9 -5 -12 -10z"/>
<path d="M3411 5032 c-1 -7 -6 -10 -13 -6 -6 4 -8 3 -5 -4 8 -12 32 -10 44 3
4 4 3 5 -4 2 -6 -4 -14 -1 -16 5 -4 10 -6 10 -6 0z"/>
<path d="M4217 5021 c-3 -13 -1 -18 9 -14 7 2 10 11 7 19 -7 19 -10 18 -16 -5z"/>
<path d="M4411 5024 c0 -11 3 -14 6 -6 3 7 2 16 -1 19 -3 4 -6 -2 -5 -13z"/>
<path d="M4439 5035 c-1 -3 -2 -17 -3 -32 -1 -16 -5 -35 -10 -43 -7 -12 -6
-13 5 -2 7 7 14 28 14 47 1 30 -2 46 -6 30z"/>
<path d="M1130 5020 c0 -5 5 -10 10 -10 6 0 10 5 10 10 0 6 -4 10 -10 10 -5 0
-10 -4 -10 -10z"/>
<path d="M1274 5004 c7 -38 14 -40 12 -5 0 17 -4 31 -9 31 -4 0 -5 -12 -3 -26z"/>
<path d="M1390 5026 c0 -2 7 -7 16 -10 8 -3 12 -2 9 4 -6 10 -25 14 -25 6z"/>
<path d="M1604 5018 c-3 -4 5 -5 17 -3 30 6 36 14 9 12 -12 -1 -24 -5 -26 -9z"/>
<path d="M1846 5022 c-3 -5 1 -9 9 -9 8 0 15 4 15 9 0 4 -4 8 -9 8 -6 0 -12
-4 -15 -8z"/>
<path d="M1931 5021 c-8 -5 -16 -17 -17 -25 -1 -9 2 -14 7 -10 5 3 6 10 3 16
-5 7 -2 9 8 6 9 -4 15 0 15 8 0 8 -1 14 -1 14 -1 0 -7 -4 -15 -9z"/>
<path d="M2053 5015 c0 -5 12 -10 27 -10 15 0 27 5 27 10 0 6 -12 10 -27 10
-15 0 -27 -4 -27 -10z"/>
<path d="M2213 5015 c0 -7 6 -11 14 -8 7 3 13 6 13 8 0 2 -6 5 -13 8 -8 3 -14
-1 -14 -8z"/>
<path d="M2324 5019 c-4 -7 -3 -9 4 -5 5 3 13 0 15 -6 4 -9 6 -10 6 -1 1 17
-16 25 -25 12z"/>
<path d="M2610 5022 c0 -5 7 -9 15 -9 8 0 12 4 9 9 -3 4 -9 8 -15 8 -5 0 -9
-4 -9 -8z"/>
<path d="M2672 5010 c-7 -12 -7 -17 4 -17 7 0 10 5 7 10 -4 6 0 8 9 5 8 -4 15
-1 15 6 0 18 -23 15 -35 -4z"/>
<path d="M2935 5021 c-3 -5 -2 -12 3 -15 5 -3 9 1 9 9 0 17 -3 19 -12 6z"/>
<path d="M3453 5015 c0 -8 4 -12 9 -9 5 3 6 10 3 15 -9 13 -12 11 -12 -6z"/>
<path d="M3679 5023 c0 -5 -3 -19 -5 -32 -2 -14 -2 -22 1 -19 8 8 17 58 10 58
-3 0 -5 -3 -6 -7z"/>
<path d="M3810 5020 c0 -5 5 -10 10 -10 6 0 10 5 10 10 0 6 -4 10 -10 10 -5 0
-10 -4 -10 -10z"/>
<path d="M3896 5022 c-3 -5 1 -9 9 -9 8 0 12 4 9 9 -3 4 -7 8 -9 8 -2 0 -6 -4
-9 -8z"/>
<path d="M4368 5012 c4 -10 7 -12 10 -4 2 7 9 9 15 5 7 -3 8 -2 4 2 -14 16
-36 14 -29 -3z"/>
<path d="M1353 5013 c4 -6 1 -14 -5 -16 -10 -4 -10 -6 0 -6 7 -1 10 -6 6 -13
-4 -6 -3 -8 4 -5 12 8 10 32 -3 44 -4 4 -5 3 -2 -4z"/>
<path d="M1679 5018 c-8 -27 -5 -36 9 -30 10 4 12 7 4 10 -7 2 -10 8 -6 13 3
5 3 9 0 9 -3 0 -6 -1 -7 -2z"/>
<path d="M2793 5005 c0 -8 4 -12 9 -9 5 3 6 10 3 15 -9 13 -12 11 -12 -6z"/>
<path d="M2907 5007 c-3 -8 1 -14 8 -14 7 0 11 6 8 14 -3 7 -6 13 -8 13 -2 0
-5 -6 -8 -13z"/>
<path d="M3595 5011 c-3 -5 -2 -12 3 -15 5 -3 9 1 9 9 0 17 -3 19 -12 6z"/>
<path d="M3747 5006 c-5 -11 -3 -15 5 -10 8 5 9 1 4 -12 -4 -10 -4 -15 0 -11
4 4 12 2 19 -3 8 -7 12 -5 12 5 0 8 -5 11 -10 8 -6 -4 -8 1 -4 11 4 9 3 15 -2
11 -5 -3 -11 0 -13 7 -3 7 -7 5 -11 -6z"/>
<path d="M1187 4992 c4 -9 2 -13 -4 -9 -5 3 -10 0 -10 -8 0 -10 4 -12 12 -5 7
5 15 7 19 3 4 -4 4 1 0 11 -6 15 -4 17 7 11 8 -5 11 -4 6 0 -14 16 -36 14 -30
-3z"/>
<path d="M1386 5003 c6 -4 10 -21 9 -36 -1 -15 1 -30 5 -32 3 -2 6 12 5 32 0
23 -6 38 -15 41 -10 2 -11 1 -4 -5z"/>
<path d="M1637 5003 c-7 -14 -2 -48 10 -68 7 -11 13 -15 13 -9 0 6 -3 14 -7
18 -12 11 -10 50 2 58 6 5 6 8 -2 8 -6 0 -14 -3 -16 -7z"/>
<path d="M1879 5008 c-5 -14 -4 -60 2 -70 4 -7 7 3 5 22 -2 19 2 38 8 42 8 5
7 8 -1 8 -7 0 -13 -1 -14 -2z"/>
<path d="M2273 4998 c2 -7 1 -20 -4 -28 -5 -11 -2 -16 11 -16 12 0 16 4 11 11
-5 5 -7 18 -6 28 2 9 -1 17 -7 17 -5 0 -8 -6 -5 -12z"/>
<path d="M2589 5004 c5 -3 7 -16 5 -30 -2 -13 0 -24 4 -24 14 0 8 53 -6 56 -7
1 -8 0 -3 -2z"/>
<path d="M2829 4990 c5 -8 6 -21 4 -27 -3 -7 0 -13 5 -13 6 0 9 8 7 18 -1 9 1
22 6 27 5 7 1 11 -11 11 -13 0 -16 -5 -11 -16z"/>
<path d="M3108 4992 c3 -9 1 -13 -5 -9 -5 3 -10 0 -10 -8 0 -8 5 -11 11 -7 17
11 70 9 79 -3 5 -6 7 -4 4 5 -2 10 -15 15 -36 14 -20 0 -30 4 -27 11 2 6 -2
12 -9 12 -8 0 -11 -7 -7 -15z"/>
<path d="M3263 4997 c-4 -6 -1 -7 7 -2 10 6 12 4 6 -11 -4 -10 -4 -15 0 -11 4
4 12 2 19 -3 8 -7 12 -5 12 5 0 8 -5 11 -10 8 -6 -4 -8 0 -5 9 7 16 -19 21
-29 5z"/>
<path d="M3549 4995 c5 -5 7 -18 6 -27 -2 -10 1 -18 7 -18 5 0 8 6 5 13 -2 6
-1 19 4 27 5 11 2 16 -11 16 -12 0 -16 -4 -11 -11z"/>
<path d="M4114 4986 c2 -14 0 -27 -5 -30 -5 -2 -4 -3 3 -2 14 3 20 56 6 56 -4
0 -6 -11 -4 -24z"/>
<path d="M1973 4985 c0 -8 5 -11 10 -8 6 4 8 0 5 -8 -4 -10 1 -15 16 -16 11 0
15 1 8 4 -10 4 -10 8 0 21 11 13 11 14 0 8 -7 -4 -19 -3 -26 3 -9 8 -13 7 -13
-4z"/>
<path d="M2193 4985 c0 -8 4 -12 9 -9 5 3 6 10 3 15 -9 13 -12 11 -12 -6z"/>
<path d="M2373 4986 c0 -9 7 -12 16 -8 13 5 14 3 4 -9 -10 -13 -10 -16 1 -16
18 0 14 27 -6 38 -10 5 -15 4 -15 -5z"/>
<path d="M2533 4986 c0 -8 5 -12 10 -9 7 4 8 -1 3 -13 -6 -15 -5 -17 5 -6 11
10 10 15 -2 28 -14 13 -16 13 -16 0z"/>
<path d="M2758 4993 c7 -3 16 -2 19 1 4 3 -2 6 -13 5 -11 0 -14 -3 -6 -6z"/>
<path d="M2974 4988 c3 -14 56 -20 56 -6 0 4 -11 6 -24 4 -14 -2 -27 0 -30 5
-2 5 -3 4 -2 -3z"/>
<path d="M3420 4991 c0 -5 -13 -7 -30 -6 -16 1 -28 -1 -25 -5 7 -11 58 -5 63
8 2 7 1 12 -2 12 -3 0 -6 -4 -6 -9z"/>
<path d="M3628 4993 c7 -3 16 -2 19 1 4 3 -2 6 -13 5 -11 0 -14 -3 -6 -6z"/>
<path d="M3861 4984 c0 -11 3 -14 6 -6 3 7 2 16 -1 19 -3 4 -6 -2 -5 -13z"/>
<path d="M3891 4984 c0 -11 3 -14 6 -6 3 7 2 16 -1 19 -3 4 -6 -2 -5 -13z"/>
<path d="M4053 4986 c0 -9 7 -12 16 -8 13 5 14 3 4 -9 -10 -13 -10 -16 1 -16
18 0 14 27 -6 38 -10 5 -15 4 -15 -5z"/>
<path d="M4193 4985 c0 -8 4 -12 9 -9 5 3 6 10 3 15 -9 13 -12 11 -12 -6z"/>
<path d="M4277 4993 c-8 -17 -1 -37 13 -40 10 -3 11 -2 4 4 -6 4 -10 16 -8 26
2 18 -2 23 -9 10z"/>
<path d="M4331 4991 c-19 -12 -22 -38 -5 -38 11 0 11 3 1 16 -10 12 -9 14 4 9
10 -4 16 -1 16 8 0 8 -1 14 -1 14 -1 0 -7 -4 -15 -9z"/>
<path d="M1110 4981 c0 -6 4 -13 10 -16 6 -3 7 1 4 9 -7 18 -14 21 -14 7z"/>
<path d="M1226 4982 c-3 -5 1 -9 9 -9 8 0 12 4 9 9 -3 4 -7 8 -9 8 -2 0 -6 -4
-9 -8z"/>
<path d="M1750 4985 c0 -5 5 -17 10 -25 5 -8 10 -10 10 -5 0 6 -5 17 -10 25
-5 8 -10 11 -10 5z"/>
<path d="M2150 4976 c7 -7 13 -7 20 0 6 6 3 10 -10 10 -13 0 -16 -4 -10 -10z"/>
<path d="M2710 4980 c0 -5 5 -10 10 -10 6 0 10 5 10 10 0 6 -4 10 -10 10 -5 0
-10 -4 -10 -10z"/>
<path d="M2953 4972 c2 -12 6 -24 10 -28 3 -4 4 4 2 16 -2 12 -7 25 -10 28 -3
3 -4 -4 -2 -16z"/>
<path d="M3214 4978 c-3 -5 -3 -12 0 -15 3 -4 6 -1 6 5 0 6 10 9 21 7 12 -3
19 -1 15 2 -11 11 -35 12 -42 1z"/>
<path d="M3439 4983 c0 -5 -2 -16 -4 -26 -2 -11 -1 -16 3 -13 8 8 14 46 7 46
-3 0 -5 -3 -6 -7z"/>
<path d="M3716 4982 c-3 -5 1 -9 9 -9 8 0 12 4 9 9 -3 4 -7 8 -9 8 -2 0 -6 -4
-9 -8z"/>
<path d="M3948 4972 c-4 -12 1 -18 13 -18 12 0 15 4 9 12 -6 6 -7 14 -3 17 3
4 2 7 -4 7 -6 0 -13 -8 -15 -18z"/>
<path d="M1321 4948 c9 -16 29 -17 29 -2 0 3 -5 2 -12 -2 -7 -5 -9 -2 -6 8 4
8 0 15 -7 15 -10 0 -11 -5 -4 -19z"/>
<path d="M1438 4963 c7 -3 16 -2 19 1 4 3 -2 6 -13 5 -11 0 -14 -3 -6 -6z"/>
<path d="M1510 4960 c0 -5 5 -10 10 -10 6 0 10 5 10 10 0 6 -4 10 -10 10 -5 0
-10 -4 -10 -10z"/>
<path d="M1587 4953 c3 -7 6 -13 8 -13 2 0 5 6 8 13 3 8 -1 14 -8 14 -7 0 -11
-6 -8 -14z"/>
<path d="M1708 4952 c4 -11 1 -13 -8 -7 -9 5 -11 4 -6 -3 10 -16 14 -15 25 6
7 14 6 19 -4 19 -7 0 -11 -7 -7 -15z"/>
<path d="M1830 4950 c5 -10 6 -21 2 -26 -4 -5 0 -3 10 4 11 9 18 9 21 2 3 -6
4 -5 3 2 -2 7 -9 12 -16 10 -7 -2 -10 3 -7 11 3 7 -1 14 -8 14 -10 0 -11 -5
-5 -17z"/>
<path d="M2638 4963 c7 -3 16 -2 19 1 4 3 -2 6 -13 5 -11 0 -14 -3 -6 -6z"/>
<path d="M2758 4951 c5 -14 3 -14 -11 -2 -9 7 -17 11 -17 8 0 -2 6 -10 14 -16
12 -10 17 -8 25 7 7 14 7 19 -4 19 -8 0 -11 -7 -7 -16z"/>
<path d="M2878 4963 c7 -3 16 -2 19 1 4 3 -2 6 -13 5 -11 0 -14 -3 -6 -6z"/>
<path d="M3355 4960 c6 -9 4 -12 -7 -8 -8 4 -15 1 -15 -7 0 -8 7 -11 15 -7 11
4 13 1 7 -9 -5 -8 -4 -11 0 -6 13 12 15 36 3 44 -7 4 -8 1 -3 -7z"/>
<path d="M3627 4953 c3 -7 6 -13 8 -13 2 0 5 6 8 13 3 8 -1 14 -8 14 -7 0 -11
-6 -8 -14z"/>
<path d="M1130 4950 c-9 -6 -10 -10 -3 -10 6 0 15 5 18 10 8 12 4 12 -15 0z"/>
<path d="M1261 4944 c0 -11 3 -14 6 -6 3 7 2 16 -1 19 -3 4 -6 -2 -5 -13z"/>
<path d="M2148 4953 c6 -2 18 -2 25 0 6 3 1 5 -13 5 -14 0 -19 -2 -12 -5z"/>
<path d="M2234 4949 c-3 -6 -2 -15 3 -20 5 -5 9 -1 9 11 0 23 -2 24 -12 9z"/>
<path d="M3036 4947 c3 -10 9 -15 12 -12 3 3 0 11 -7 18 -10 9 -11 8 -5 -6z"/>
<path d="M3061 4953 c-1 -17 16 -25 25 -12 4 7 3 9 -4 5 -5 -3 -13 0 -15 6 -4
9 -6 10 -6 1z"/>
<path d="M3655 4951 c-3 -5 -2 -12 3 -15 5 -3 9 1 9 9 0 17 -3 19 -12 6z"/>
<path d="M3686 4943 c-6 -14 -5 -15 5 -6 7 7 10 15 7 18 -3 3 -9 -2 -12 -12z"/>
<path d="M3811 4944 c0 -11 3 -14 6 -6 3 7 2 16 -1 19 -3 4 -6 -2 -5 -13z"/>
<path d="M4155 4950 c-8 -13 3 -30 18 -30 7 0 6 4 -3 10 -13 9 -13 11 0 20 9
6 10 10 3 10 -6 0 -15 -4 -18 -10z"/>
<path d="M1473 4935 c0 -8 4 -12 9 -9 5 3 6 10 3 15 -9 13 -12 11 -12 -6z"/>
<path d="M1930 4942 c0 -4 10 -9 22 -9 18 -2 20 0 8 7 -18 12 -30 13 -30 2z"/>
<path d="M2090 4942 c0 -4 10 -9 22 -9 18 -2 20 0 8 7 -18 12 -30 13 -30 2z"/>
<path d="M2350 4940 c0 -5 5 -10 10 -10 6 0 10 5 10 10 0 6 -4 10 -10 10 -5 0
-10 -4 -10 -10z"/>
<path d="M2490 4940 c0 -5 5 -10 10 -10 6 0 10 5 10 10 0 6 -4 10 -10 10 -5 0
-10 -4 -10 -10z"/>
<path d="M2615 4941 c-3 -5 -2 -12 3 -15 5 -3 9 1 9 9 0 17 -3 19 -12 6z"/>
<path d="M2777 4936 c-4 -11 -1 -13 10 -9 10 4 14 2 10 -4 -3 -5 0 -10 8 -10
13 0 12 4 -2 19 -19 22 -19 22 -26 4z"/>
<path d="M2866 4938 c3 -5 10 -6 15 -3 13 9 11 12 -6 12 -8 0 -12 -4 -9 -9z"/>
<path d="M2900 4935 c-11 -13 -10 -14 5 -9 11 5 16 4 12 -3 -3 -5 0 -10 8 -10
12 0 12 3 3 16 -7 9 -13 17 -14 19 -1 1 -7 -4 -14 -13z"/>
<path d="M3201 4936 c-9 -10 -9 -16 -1 -21 6 -4 14 -4 17 -1 4 3 1 6 -7 6 -10
0 -10 3 0 15 7 8 10 15 7 15 -2 0 -10 -6 -16 -14z"/>
<path d="M3381 4934 c0 -11 3 -14 6 -6 3 7 2 16 -1 19 -3 4 -6 -2 -5 -13z"/>
<path d="M3870 4940 c0 -5 5 -10 10 -10 6 0 10 5 10 10 0 6 -4 10 -10 10 -5 0
-10 -4 -10 -10z"/>
<path d="M4030 4940 c0 -5 5 -10 10 -10 6 0 10 5 10 10 0 6 -4 10 -10 10 -5 0
-10 -4 -10 -10z"/>
<path d="M4230 4940 c0 -5 5 -10 10 -10 6 0 10 5 10 10 0 6 -4 10 -10 10 -5 0
-10 -4 -10 -10z"/>
<path d="M4350 4940 c0 -5 5 -10 10 -10 6 0 10 5 10 10 0 6 -4 10 -10 10 -5 0
-10 -4 -10 -10z"/>
<path d="M1351 4927 c-8 -10 -7 -14 4 -14 8 0 11 5 8 10 -4 6 1 8 11 4 10 -4
15 -3 11 3 -8 14 -20 12 -34 -3z"/>
<path d="M2587 4927 c-3 -8 1 -14 8 -14 7 0 11 6 8 14 -3 7 -6 13 -8 13 -2 0
-5 -6 -8 -13z"/>
<path d="M2995 4912 c1 -15 -3 -31 -9 -35 -7 -6 -6 -7 4 -5 14 4 23 55 10 63
-4 2 -6 -8 -5 -23z"/>
<path d="M3279 4938 c-5 -19 -8 -50 -4 -46 7 7 15 48 9 48 -2 0 -4 -1 -5 -2z"/>
<path d="M3557 4927 c-3 -8 1 -14 8 -14 7 0 11 6 8 14 -3 7 -6 13 -8 13 -2 0
-5 -6 -8 -13z"/>
<path d="M3759 4935 c-1 -3 -2 -8 -3 -12 -1 -5 -5 -15 -10 -23 -7 -12 -6 -13
4 -3 13 12 23 43 14 43 -2 0 -5 -2 -5 -5z"/>
<path d="M1915 4921 c6 -10 4 -13 -7 -9 -8 4 -15 1 -15 -7 0 -8 7 -11 16 -7
14 5 14 4 1 -14 -14 -17 -14 -18 2 -6 17 13 18 36 3 49 -4 5 -5 2 0 -6z"/>
<path d="M1986 4918 c3 -5 10 -6 15 -3 13 9 11 12 -6 12 -8 0 -12 -4 -9 -9z"/>
<path d="M2029 4910 c5 -8 6 -21 4 -27 -3 -7 0 -13 5 -13 6 0 9 8 7 18 -1 9 1
22 6 27 5 7 1 11 -11 11 -13 0 -16 -5 -11 -16z"/>
<path d="M2189 4910 c5 -8 6 -21 4 -27 -3 -7 0 -13 5 -13 6 0 9 8 7 18 -1 9 1
22 6 27 5 7 1 11 -11 11 -13 0 -16 -5 -11 -16z"/>
<path d="M2265 4923 c12 -9 14 -62 3 -79 -4 -6 -1 -11 7 -11 8 0 11 5 8 10 -4
6 0 8 9 5 8 -4 15 -1 15 7 0 7 -6 11 -12 9 -7 -3 -11 7 -11 27 1 21 -4 34 -14
36 -9 3 -11 1 -5 -4z"/>
<path d="M2393 4911 c10 -12 9 -14 -4 -9 -9 4 -16 1 -16 -8 0 -9 5 -10 15 -5
20 11 24 38 6 38 -11 0 -11 -3 -1 -16z"/>
<path d="M2426 4923 c6 -4 10 -16 8 -26 -1 -9 1 -15 6 -12 13 8 5 38 -11 43
-9 2 -10 1 -3 -5z"/>
<path d="M2547 4913 c4 -10 2 -14 -4 -10 -5 3 -10 0 -10 -8 0 -13 4 -12 19 2
22 19 22 19 4 26 -11 4 -13 1 -9 -10z"/>
<path d="M3634 4906 c2 -14 0 -27 -5 -30 -5 -2 -4 -3 3 -2 14 3 20 56 6 56 -4
0 -6 -11 -4 -24z"/>
<path d="M3949 4915 c5 -5 7 -18 6 -27 -2 -10 1 -18 7 -18 5 0 8 6 5 13 -2 6
-1 19 4 27 5 11 2 16 -11 16 -12 0 -16 -4 -11 -11z"/>
<path d="M4109 4924 c5 -3 7 -16 5 -30 -2 -13 0 -24 4 -24 14 0 8 53 -6 56 -7
1 -8 0 -3 -2z"/>
<path d="M4310 4923 c7 -3 8 -9 1 -17 -8 -9 -7 -13 3 -13 17 0 14 30 -3 33 -7
2 -7 0 -1 -3z"/>
<path d="M1171 4904 c0 -11 3 -14 6 -6 3 7 2 16 -1 19 -3 4 -6 -2 -5 -13z"/>
<path d="M1251 4911 c-8 -5 -20 -7 -28 -4 -7 3 -13 1 -13 -5 0 -6 8 -9 18 -7
9 1 22 -1 27 -6 7 -5 11 0 11 12 0 10 0 19 -1 19 0 0 -6 -4 -14 -9z"/>
<path d="M1536 4907 c5 -14 54 -18 54 -4 0 5 -6 7 -12 4 -7 -2 -21 0 -30 5
-13 6 -16 5 -12 -5z"/>
<path d="M1612 4911 c-11 -7 -11 -9 0 -14 9 -3 15 1 15 9 0 8 -1 14 -1 14 -1
0 -7 -4 -14 -9z"/>
<path d="M2652 4911 c5 -16 35 -24 43 -11 3 5 -3 7 -12 6 -10 -2 -22 2 -26 8
-6 7 -7 6 -5 -3z"/>
<path d="M2735 4910 c-4 -6 -11 -8 -16 -5 -5 3 -6 -2 -2 -11 5 -13 3 -15 -8
-9 -8 5 -11 4 -6 0 14 -16 36 -14 30 3 -4 9 -2 13 4 9 5 -3 10 0 10 8 0 18 -3
19 -12 5z"/>
<path d="M3038 4913 c7 -3 16 -2 19 1 4 3 -2 6 -13 5 -11 0 -14 -3 -6 -6z"/>
<path d="M3134 4900 c0 -13 5 -16 16 -11 8 5 21 6 28 4 6 -3 12 0 12 5 0 6 -8
9 -17 7 -10 -1 -23 1 -28 6 -7 5 -11 1 -11 -11z"/>
<path d="M3413 4905 c0 -8 5 -11 10 -8 6 4 8 0 5 -9 -4 -8 -1 -15 7 -15 7 0
11 6 9 12 -3 7 7 11 27 11 21 -1 34 4 36 14 3 9 1 11 -4 5 -9 -12 -62 -14 -79
-3 -6 4 -11 1 -11 -7z"/>
<path d="M3678 4913 c7 -3 16 -2 19 1 4 3 -2 6 -13 5 -11 0 -14 -3 -6 -6z"/>
<path d="M1294 4898 c-3 -5 -3 -12 0 -15 3 -4 6 -1 6 5 0 6 10 9 21 7 12 -3
19 -1 15 2 -11 11 -35 12 -42 1z"/>
<path d="M1415 4899 c-3 -4 2 -6 10 -5 21 3 28 13 10 13 -9 0 -18 -4 -20 -8z"/>
<path d="M1675 4900 c2 -4 17 -6 32 -5 15 1 32 -3 36 -9 6 -7 7 -6 5 4 -3 9
-18 15 -41 15 -20 1 -34 -2 -32 -5z"/>
<path d="M1773 4897 c-3 -4 -2 -11 1 -14 3 -4 6 -1 6 5 0 6 11 9 25 6 14 -2
25 -1 25 4 0 11 -50 10 -57 -1z"/>
<path d="M1941 4894 c0 -11 3 -14 6 -6 3 7 2 16 -1 19 -3 4 -6 -2 -5 -13z"/>
<path d="M1973 4895 c0 -7 6 -11 14 -8 7 3 13 6 13 8 0 2 -6 5 -13 8 -8 3 -14
-1 -14 -8z"/>
<path d="M2101 4894 c0 -11 3 -14 6 -6 3 7 2 16 -1 19 -3 4 -6 -2 -5 -13z"/>
<path d="M2133 4895 c0 -7 6 -11 14 -8 7 3 13 6 13 8 0 2 -6 5 -13 8 -8 3 -14
-1 -14 -8z"/>
<path d="M2633 4892 c2 -12 6 -24 10 -28 3 -4 4 4 2 16 -2 12 -7 25 -10 28 -3
3 -4 -4 -2 -16z"/>
<path d="M2826 4902 c-3 -5 1 -9 9 -9 8 0 12 4 9 9 -3 4 -7 8 -9 8 -2 0 -6 -4
-9 -8z"/>
<path d="M2953 4903 c4 -6 1 -14 -5 -16 -10 -4 -10 -6 0 -6 7 -1 10 -6 6 -13
-4 -6 -3 -8 4 -5 12 8 10 32 -3 44 -4 4 -5 3 -2 -4z"/>
<path d="M3293 4897 c-3 -4 -2 -11 1 -14 3 -4 6 -2 6 4 0 6 14 9 30 8 17 -1
32 0 34 4 3 4 -11 7 -30 7 -20 0 -38 -4 -41 -9z"/>
<path d="M3519 4903 c-6 -55 -6 -73 -1 -73 4 0 8 18 8 40 1 22 -1 40 -2 40 -2
0 -4 -3 -5 -7z"/>
<path d="M3774 4898 c-3 -5 -3 -12 0 -15 3 -4 6 -2 6 4 0 6 15 9 36 7 20 -2
34 -1 31 3 -10 10 -67 11 -73 1z"/>
<path d="M3861 4894 c0 -11 3 -14 6 -6 3 7 2 16 -1 19 -3 4 -6 -2 -5 -13z"/>
<path d="M3891 4894 c0 -11 3 -14 6 -6 3 7 2 16 -1 19 -3 4 -6 -2 -5 -13z"/>
<path d="M4021 4894 c0 -11 3 -14 6 -6 3 7 2 16 -1 19 -3 4 -6 -2 -5 -13z"/>
<path d="M4053 4895 c0 -7 6 -11 14 -8 7 3 13 6 13 8 0 2 -6 5 -13 8 -8 3 -14
-1 -14 -8z"/>
<path d="M4193 4895 c0 -8 4 -12 9 -9 5 3 6 10 3 15 -9 13 -12 11 -12 -6z"/>
<path d="M4341 4894 c0 -11 3 -14 6 -6 3 7 2 16 -1 19 -3 4 -6 -2 -5 -13z"/>
<path d="M4371 4894 c0 -11 3 -14 6 -6 3 7 2 16 -1 19 -3 4 -6 -2 -5 -13z"/>
<path d="M3590 4890 c-11 -7 -11 -10 -2 -10 8 0 10 -5 6 -12 -4 -7 -3 -9 1 -5
7 6 17 37 12 37 -1 0 -9 -5 -17 -10z"/>
<path d="M1435 4880 c-11 -5 -14 -9 -7 -9 8 -1 10 -6 6 -13 -4 -7 -4 -10 1 -6
4 4 13 3 20 -2 8 -7 12 -5 12 5 0 8 -5 11 -10 8 -6 -4 -8 0 -4 10 3 10 5 17 4
16 -1 0 -11 -4 -22 -9z"/>
<path d="M1510 4881 c0 -6 4 -12 8 -15 5 -3 9 1 9 9 0 8 -4 15 -9 15 -4 0 -8
-4 -8 -9z"/>
<path d="M1596 4882 c-3 -5 1 -9 9 -9 8 0 12 4 9 9 -3 4 -7 8 -9 8 -2 0 -6 -4
-9 -8z"/>
<path d="M2556 4881 c-3 -5 2 -15 12 -22 15 -13 16 -12 4 3 -10 13 -10 17 0
21 9 4 9 6 1 6 -6 1 -14 -3 -17 -8z"/>
<path d="M3067 4873 c3 -7 6 -13 8 -13 2 0 5 6 8 13 3 8 -1 14 -8 14 -7 0 -11
-6 -8 -14z"/>
<path d="M3227 4873 c3 -7 6 -13 8 -13 2 0 5 6 8 13 3 8 -1 14 -8 14 -7 0 -11
-6 -8 -14z"/>
<path d="M3708 4876 c11 -17 9 -70 -3 -79 -6 -5 -4 -7 5 -4 10 2 15 15 14 36
0 20 4 30 11 27 6 -2 12 2 12 9 0 8 -7 11 -15 7 -9 -3 -13 -1 -9 5 3 5 0 10
-8 10 -8 0 -11 -5 -7 -11z"/>
<path d="M2341 4872 c-1 -7 -6 -10 -13 -6 -6 4 -8 3 -5 -4 8 -12 32 -10 44 3
4 4 3 5 -4 2 -6 -4 -14 -1 -16 5 -4 10 -6 10 -6 0z"/>
<path d="M2455 4871 c6 -11 4 -13 -11 -7 -10 4 -15 4 -11 0 4 -4 2 -12 -3 -19
-7 -8 -5 -12 5 -12 8 0 11 5 8 10 -4 6 0 8 9 4 17 -6 19 16 3 30 -4 5 -5 2 0
-6z"/>
<path d="M2491 4871 c-8 -5 -9 -11 -3 -15 5 -3 12 1 16 9 6 17 6 18 -13 6z"/>
<path d="M2834 4860 c0 -13 4 -16 10 -10 7 7 7 13 0 20 -6 6 -10 3 -10 -10z"/>
<path d="M2862 4860 c0 -14 2 -19 5 -12 2 6 2 18 0 25 -3 6 -5 1 -5 -13z"/>
<path d="M3095 4871 c-3 -5 -2 -12 3 -15 5 -3 9 1 9 9 0 17 -3 19 -12 6z"/>
<path d="M3255 4871 c-3 -5 -2 -12 3 -15 5 -3 9 1 9 9 0 17 -3 19 -12 6z"/>
<path d="M3395 4870 c-4 -6 -10 -8 -15 -5 -4 3 -14 -3 -21 -13 -12 -15 -12
-16 2 -5 9 7 18 11 21 8 3 -3 11 1 18 10 7 8 10 15 7 15 -3 0 -9 -5 -12 -10z"/>
<path d="M4215 4871 c6 -11 4 -13 -7 -8 -17 6 -19 -16 -3 -30 4 -5 5 -2 0 6
-6 11 -4 13 7 8 17 -6 19 16 3 30 -4 5 -5 2 0 -6z"/>
<path d="M4253 4872 c-7 -4 -9 -13 -4 -21 6 -9 10 -7 14 8 3 12 4 21 4 21 -1
0 -7 -4 -14 -8z"/>
<path d="M1150 4863 c0 -5 14 -9 31 -9 35 -2 33 5 -5 12 -14 2 -26 1 -26 -3z"/>
<path d="M1293 4854 c0 -7 7 -10 15 -6 9 3 13 1 9 -5 -3 -5 0 -10 7 -10 11 0
11 5 4 17 -12 19 -35 22 -35 4z"/>
<path d="M1365 4860 c-3 -6 1 -7 9 -4 18 7 21 14 7 14 -6 0 -13 -4 -16 -10z"/>
<path d="M1632 4865 c3 -3 16 -8 28 -10 12 -2 20 -1 16 2 -4 4 -16 8 -28 10
-12 2 -19 1 -16 -2z"/>
<path d="M1710 4850 c-6 -12 -5 -17 5 -17 8 0 11 7 7 16 -5 13 -3 14 9 4 13
-10 16 -10 16 0 0 19 -26 17 -37 -3z"/>
<path d="M1773 4855 c0 -8 4 -12 9 -9 5 3 6 10 3 15 -9 13 -12 11 -12 -6z"/>
<path d="M1844 4858 c-3 -4 5 -5 17 -3 30 6 36 14 9 12 -12 -1 -24 -5 -26 -9z"/>
<path d="M2595 4833 c0 -23 6 -38 15 -41 10 -2 11 -1 4 5 -6 4 -10 21 -9 36 1
15 -1 30 -5 32 -3 2 -6 -12 -5 -32z"/>
<path d="M2693 4855 c0 -8 7 -11 15 -7 9 3 13 1 9 -5 -4 -6 0 -16 7 -22 10 -9
16 -9 21 -1 4 6 3 10 -2 9 -19 -3 -27 2 -15 9 9 6 6 11 -11 19 -18 9 -24 8
-24 -2z"/>
<path d="M2770 4860 c0 -5 5 -10 10 -10 6 0 10 5 10 10 0 6 -4 10 -10 10 -5 0
-10 -4 -10 -10z"/>
<path d="M3010 4858 c0 -4 4 -8 9 -8 6 0 12 4 15 8 3 5 -1 9 -9 9 -8 0 -15 -4
-15 -9z"/>
<path d="M3124 4859 c-4 -7 -3 -9 4 -5 5 3 13 0 15 -6 4 -9 6 -10 6 -1 1 17
-16 25 -25 12z"/>
<path d="M3283 4857 c-3 -6 -1 -7 5 -3 5 3 12 1 14 -6 3 -8 6 -7 10 3 7 17
-19 22 -29 6z"/>
<path d="M3650 4858 c0 -4 4 -8 9 -8 6 0 12 4 15 8 3 5 -1 9 -9 9 -8 0 -15 -4
-15 -9z"/>
<path d="M3763 4858 c-3 -6 -1 -8 5 -4 5 3 13 0 15 -6 4 -10 6 -10 6 0 1 8 6
10 14 6 6 -4 8 -3 4 1 -12 13 -36 15 -44 3z"/>
<path d="M4275 4861 c-3 -5 -2 -12 3 -15 5 -3 9 1 9 9 0 17 -3 19 -12 6z"/>
<path d="M1797 4847 c-3 -8 1 -14 8 -14 7 0 11 6 8 14 -3 7 -6 13 -8 13 -2 0
-5 -6 -8 -13z"/>
<path d="M3439 4858 c-6 -22 -5 -39 3 -45 6 -3 8 -1 4 5 -3 5 0 13 6 15 10 4
10 6 0 6 -7 1 -10 6 -7 11 3 6 4 10 1 10 -3 0 -6 -1 -7 -2z"/>
<path d="M3957 4847 c-3 -8 1 -14 8 -14 7 0 11 6 8 14 -3 7 -6 13 -8 13 -2 0
-5 -6 -8 -13z"/>
<path d="M1388 4828 c2 -10 9 -18 15 -18 6 0 7 3 4 7 -4 3 -3 11 3 17 6 8 3
12 -9 12 -12 0 -17 -6 -13 -18z"/>
<path d="M1626 4843 c11 -8 12 -48 2 -75 -4 -8 -1 -15 5 -15 19 0 15 89 -3 94
-10 3 -11 1 -4 -4z"/>
<path d="M1877 4843 c-2 -5 -3 -21 -2 -36 1 -18 -2 -26 -10 -23 -6 2 -12 -2
-12 -9 0 -8 7 -11 15 -7 9 3 13 1 9 -5 -3 -5 0 -10 8 -10 8 0 11 5 7 11 -11
17 -9 70 3 78 6 5 6 8 -2 8 -6 0 -14 -3 -16 -7z"/>
<path d="M2956 4835 c3 -7 -7 -11 -27 -11 -21 1 -34 -4 -36 -14 -3 -9 -1 -11
4 -5 9 12 62 14 79 3 6 -4 11 -1 11 7 0 8 -5 11 -10 8 -6 -4 -8 0 -5 9 4 8 1
15 -7 15 -7 0 -11 -6 -9 -12z"/>
<path d="M3073 4838 c2 -7 1 -20 -4 -28 -5 -11 -2 -16 11 -16 12 0 16 4 11 11
-5 5 -7 18 -6 28 2 9 -1 17 -7 17 -5 0 -8 -6 -5 -12z"/>
<path d="M3234 4826 c2 -14 0 -27 -5 -30 -5 -2 -4 -3 3 -2 14 3 20 56 6 56 -4
0 -6 -11 -4 -24z"/>
<path d="M3399 4848 c-6 -21 -6 -39 1 -43 5 -3 7 3 6 12 -2 10 2 21 8 25 8 5
7 8 -1 8 -7 0 -13 -1 -14 -2z"/>
<path d="M3596 4835 c3 -7 -7 -11 -27 -11 -21 1 -34 -4 -36 -14 -3 -9 -1 -11
4 -5 9 12 62 14 79 3 6 -4 11 -1 11 7 0 8 -5 11 -10 8 -6 -4 -8 0 -5 9 4 8 1
15 -7 15 -7 0 -11 -6 -9 -12z"/>
<path d="M4356 4833 c-4 -10 0 -23 11 -32 15 -15 16 -15 5 0 -7 9 -10 24 -6
33 3 9 4 16 1 16 -3 0 -8 -8 -11 -17z"/>
<path d="M1477 4833 c-8 -17 -1 -37 13 -40 10 -3 11 -2 4 4 -6 4 -10 16 -8 26
2 18 -2 23 -9 10z"/>
<path d="M1531 4831 c-19 -12 -22 -38 -5 -38 11 0 11 3 1 16 -10 12 -9 14 4 9
10 -4 16 -1 16 8 0 8 -1 14 -1 14 -1 0 -7 -4 -15 -9z"/>
<path d="M1975 4831 c-3 -6 -14 -8 -25 -6 -11 2 -20 -1 -20 -6 0 -6 6 -9 13
-6 6 2 19 1 27 -4 12 -5 16 -2 16 12 0 21 -2 23 -11 10z"/>
<path d="M2038 4833 c7 -3 16 -2 19 1 4 3 -2 6 -13 5 -11 0 -14 -3 -6 -6z"/>
<path d="M2135 4831 c-3 -6 -14 -8 -25 -6 -11 2 -20 -1 -20 -6 0 -6 6 -9 13
-6 6 2 19 1 27 -4 12 -5 16 -2 16 12 0 21 -2 23 -11 10z"/>
<path d="M2198 4833 c7 -3 16 -2 19 1 4 3 -2 6 -13 5 -11 0 -14 -3 -6 -6z"/>
<path d="M2332 4830 c5 -15 49 -22 70 -9 7 4 -3 7 -22 5 -19 -2 -39 2 -43 8
-6 7 -7 6 -5 -4z"/>
<path d="M2492 4830 c6 -19 55 -21 71 -2 10 13 9 14 -3 7 -20 -13 -53 -13 -63
0 -5 6 -7 4 -5 -5z"/>
<path d="M2650 4827 c-20 -16 -22 -34 -5 -34 7 0 11 7 7 15 -3 9 -1 13 5 9 5
-3 10 0 10 8 0 8 -1 15 -1 15 -1 0 -8 -6 -16 -13z"/>
<path d="M3173 4825 c0 -7 6 -11 14 -8 7 3 13 6 13 8 0 2 -6 5 -13 8 -8 3 -14
-1 -14 -8z"/>
<path d="M3333 4825 c0 -7 6 -11 14 -8 7 3 13 6 13 8 0 2 -6 5 -13 8 -8 3 -14
-1 -14 -8z"/>
<path d="M3813 4826 c0 -8 5 -12 10 -9 7 4 8 -1 3 -13 -6 -15 -5 -17 5 -6 11
10 10 15 -2 28 -14 13 -16 13 -16 0z"/>
<path d="M3895 4830 c-4 -6 -11 -8 -16 -5 -5 4 -9 2 -9 -3 0 -5 8 -12 18 -14
12 -4 18 1 18 13 0 22 -2 23 -11 9z"/>
<path d="M4048 4833 c-10 -2 -18 -9 -18 -15 0 -6 3 -8 7 -5 3 4 11 3 17 -3 8
-6 12 -3 12 11 0 10 0 18 -1 18 0 -1 -8 -3 -17 -6z"/>
<path d="M4140 4836 c0 -2 7 -7 16 -10 8 -3 12 -2 9 4 -6 10 -25 14 -25 6z"/>
<path d="M1270 4820 c0 -5 5 -10 10 -10 6 0 10 5 10 10 0 6 -4 10 -10 10 -5 0
-10 -4 -10 -10z"/>
<path d="M1750 4820 c0 -5 5 -10 10 -10 6 0 10 5 10 10 0 6 -4 10 -10 10 -5 0
-10 -4 -10 -10z"/>
<path d="M2313 4812 c2 -12 9 -28 17 -35 10 -10 11 -9 4 3 -5 8 -9 21 -10 28
-2 8 -5 17 -8 20 -4 3 -5 -4 -3 -16z"/>
<path d="M2826 4818 c3 -5 10 -6 15 -3 13 9 11 12 -6 12 -8 0 -12 -4 -9 -9z"/>
<path d="M4276 4818 c3 -5 10 -6 15 -3 13 9 11 12 -6 12 -8 0 -12 -4 -9 -9z"/>
<path d="M1185 4800 c-3 -6 1 -7 9 -4 18 7 21 14 7 14 -6 0 -13 -4 -16 -10z"/>
<path d="M1227 4793 c3 -7 6 -13 8 -13 2 0 5 6 8 13 3 8 -1 14 -8 14 -7 0 -11
-6 -8 -14z"/>
<path d="M1678 4803 c7 -3 16 -2 19 1 4 3 -2 6 -13 5 -11 0 -14 -3 -6 -6z"/>
<path d="M1828 4803 c7 -3 16 -2 19 1 4 3 -2 6 -13 5 -11 0 -14 -3 -6 -6z"/>
<path d="M2038 4803 c7 -3 16 -2 19 1 4 3 -2 6 -13 5 -11 0 -14 -3 -6 -6z"/>
<path d="M2197 4793 c3 -7 6 -13 8 -13 2 0 5 6 8 13 3 8 -1 14 -8 14 -7 0 -11
-6 -8 -14z"/>
<path d="M2238 4803 c7 -3 16 -2 19 1 4 3 -2 6 -13 5 -11 0 -14 -3 -6 -6z"/>
<path d="M2395 4801 c-3 -5 0 -13 7 -18 16 -10 42 -14 33 -5 -4 4 -11 8 -16 8
-22 3 -23 5 -9 14 9 6 10 10 3 10 -6 0 -14 -4 -18 -9z"/>
<path d="M2470 4801 c0 -6 4 -12 8 -15 5 -3 9 1 9 9 0 8 -4 15 -9 15 -4 0 -8
-4 -8 -9z"/>
<path d="M2797 4797 c4 -6 0 -8 -8 -5 -10 4 -15 -1 -15 -13 0 -14 3 -16 15 -6
12 10 14 9 9 -4 -4 -9 -1 -16 7 -16 10 0 11 5 5 17 -6 10 -5 21 1 27 6 6 5 10
-5 10 -8 0 -12 -5 -9 -10z"/>
<path d="M3186 4802 c-3 -5 1 -9 9 -9 8 0 12 4 9 9 -3 4 -7 8 -9 8 -2 0 -6 -4
-9 -8z"/>
<path d="M3345 4800 c-3 -6 1 -7 9 -4 18 7 21 14 7 14 -6 0 -13 -4 -16 -10z"/>
<path d="M3472 4790 c12 -19 35 -22 35 -4 0 7 -7 10 -15 6 -9 -3 -13 -1 -9 5
3 5 0 10 -7 10 -11 0 -11 -5 -4 -17z"/>
<path d="M3958 4803 c7 -3 16 -2 19 1 4 3 -2 6 -13 5 -11 0 -14 -3 -6 -6z"/>
<path d="M4117 4793 c3 -7 6 -13 8 -13 2 0 5 6 8 13 3 8 -1 14 -8 14 -7 0 -11
-6 -8 -14z"/>
<path d="M4161 4789 c12 -24 26 -31 26 -14 0 8 -5 11 -10 8 -6 -4 -8 0 -5 9 4
8 0 15 -7 15 -10 0 -11 -5 -4 -18z"/>
<path d="M4230 4801 c0 -5 8 -15 18 -22 15 -12 16 -12 5 2 -7 9 -10 19 -6 22
3 4 1 7 -5 7 -7 0 -12 -4 -12 -9z"/>
<path d="M4311 4788 c5 -10 13 -18 16 -18 3 0 3 3 0 7 -4 3 -3 11 3 17 6 8 3
12 -10 12 -15 0 -16 -4 -9 -18z"/>
<path d="M2553 4787 c0 -7 9 -14 19 -14 10 -1 18 3 18 9 0 6 -3 8 -7 5 -3 -4
-11 -2 -18 3 -8 7 -12 6 -12 -3z"/>
<path d="M3011 4793 c-2 -20 16 -24 30 -5 13 15 12 16 -3 4 -13 -10 -17 -10
-21 0 -4 9 -6 9 -6 1z"/>
<path d="M3371 4786 c-9 -10 -8 -15 2 -19 8 -3 13 3 13 14 0 23 0 23 -15 5z"/>
<path d="M3654 4778 c0 -16 2 -16 18 -1 10 9 18 17 18 17 0 1 -8 2 -18 2 -10
0 -18 -8 -18 -18z"/>
<path d="M3915 4789 c-4 -6 -5 -12 -2 -15 2 -3 7 2 10 11 7 17 1 20 -8 4z"/>
<path d="M4093 4785 c0 -8 4 -12 9 -9 5 3 6 10 3 15 -9 13 -12 11 -12 -6z"/>
<path d="M1436 4782 c-2 -4 9 -8 25 -8 33 -2 33 4 1 11 -12 2 -24 1 -26 -3z"/>
<path d="M1552 4785 c3 -3 16 -8 28 -10 12 -2 20 -1 16 2 -4 4 -16 8 -28 10
-12 2 -19 1 -16 -2z"/>
<path d="M1655 4781 c-3 -5 -2 -12 3 -15 5 -3 9 1 9 9 0 17 -3 19 -12 6z"/>
<path d="M1700 4775 c-11 -13 -10 -14 5 -9 14 6 16 4 10 -6 -5 -8 -4 -11 3 -6
6 4 9 13 5 21 -7 19 -8 19 -23 0z"/>
<path d="M1796 4773 c-6 -14 -5 -15 5 -6 7 7 10 15 7 18 -3 3 -9 -2 -12 -12z"/>
<path d="M1825 4779 c-4 -6 -5 -12 -2 -15 2 -3 7 2 10 11 7 17 1 20 -8 4z"/>
<path d="M2275 4753 c0 -23 6 -38 15 -41 10 -2 11 -1 4 5 -6 4 -10 21 -9 36 1
15 -1 30 -5 32 -3 2 -6 -12 -5 -32z"/>
<path d="M2357 4772 c-14 -15 -15 -19 -2 -19 8 0 11 5 8 10 -4 6 0 8 10 4 11
-4 14 -2 10 9 -7 18 -7 18 -26 -4z"/>
<path d="M2531 4774 c0 -11 3 -14 6 -6 3 7 2 16 -1 19 -3 4 -6 -2 -5 -13z"/>
<path d="M2690 4778 c0 -6 3 -8 7 -5 3 4 13 1 22 -6 14 -11 14 -10 2 6 -15 20
-31 22 -31 5z"/>
<path d="M2893 4774 c0 -7 7 -10 15 -6 9 3 13 1 9 -5 -3 -5 0 -10 7 -10 11 0
11 5 4 17 -12 19 -35 22 -35 4z"/>
<path d="M2994 4760 c2 -19 -2 -39 -8 -43 -7 -6 -6 -7 4 -5 15 5 22 49 9 70
-4 7 -7 -3 -5 -22z"/>
<path d="M3150 4786 c0 -2 7 -7 16 -10 8 -3 12 -2 9 4 -6 10 -25 14 -25 6z"/>
<path d="M3310 4780 c0 -5 5 -10 10 -10 6 0 10 5 10 10 0 6 -4 10 -10 10 -5 0
-10 -4 -10 -10z"/>
<path d="M3533 4774 c0 -11 3 -11 16 -1 12 10 14 9 9 -4 -4 -9 -1 -16 8 -16 9
0 10 5 5 15 -11 20 -38 24 -38 6z"/>
<path d="M3720 4780 c-9 -6 -10 -10 -3 -10 6 0 15 5 18 10 8 12 4 12 -15 0z"/>
<path d="M3790 4786 c0 -2 7 -7 16 -10 8 -3 12 -2 9 4 -6 10 -25 14 -25 6z"/>
<path d="M3990 4781 c0 -6 4 -13 10 -16 6 -3 7 1 4 9 -7 18 -14 21 -14 7z"/>
<path d="M4277 4772 c-14 -15 -15 -19 -2 -19 8 0 11 5 8 10 -4 6 0 8 10 4 11
-4 14 -2 10 9 -7 18 -7 18 -26 -4z"/>
<path d="M1513 4751 c10 -12 9 -14 -4 -9 -9 4 -16 1 -16 -8 0 -9 5 -10 15 -5
20 11 24 38 6 38 -11 0 -11 -3 -1 -16z"/>
<path d="M1546 4763 c6 -4 10 -21 9 -36 -1 -15 1 -30 5 -32 3 -2 6 12 5 32 0
23 -6 38 -15 41 -10 2 -11 1 -4 -5z"/>
<path d="M2628 4752 c3 -9 1 -13 -5 -9 -5 3 -10 0 -10 -7 0 -11 5 -11 17 -4
19 12 22 35 4 35 -7 0 -10 -7 -6 -15z"/>
<path d="M3106 4758 c3 -5 10 -6 15 -3 13 9 11 12 -6 12 -8 0 -12 -4 -9 -9z"/>
<path d="M3149 4764 c5 -3 7 -16 5 -30 -2 -13 0 -24 4 -24 14 0 8 53 -6 56 -7
1 -8 0 -3 -2z"/>
<path d="M3229 4764 c5 -3 7 -16 5 -30 -2 -13 0 -24 4 -24 14 0 8 53 -6 56 -7
1 -8 0 -3 -2z"/>
<path d="M3347 4759 c7 -7 15 -10 18 -7 3 3 -2 9 -12 12 -14 6 -15 5 -6 -5z"/>
<path d="M3634 4748 c2 -15 0 -29 -5 -32 -5 -2 -4 -3 2 -2 15 3 20 29 8 47 -7
10 -8 6 -5 -13z"/>
<path d="M3753 4751 c10 -12 9 -14 -4 -9 -9 4 -16 1 -16 -8 0 -9 5 -10 15 -5
20 11 24 38 6 38 -11 0 -11 -3 -1 -16z"/>
<path d="M3789 4764 c5 -3 7 -16 5 -30 -2 -13 0 -24 4 -24 14 0 8 53 -6 56 -7
1 -8 0 -3 -2z"/>
<path d="M4115 4743 c0 -15 6 -28 13 -29 7 -1 8 0 3 2 -5 3 -7 16 -5 30 2 13
0 24 -4 24 -5 0 -8 -12 -7 -27z"/>
<path d="M1255 4750 c-4 -6 -11 -8 -16 -5 -5 4 -9 2 -9 -3 0 -5 8 -12 18 -14
12 -4 18 1 18 13 0 22 -2 23 -11 9z"/>
<path d="M1294 4748 c3 -14 56 -20 56 -6 0 4 -11 6 -24 4 -14 -2 -27 0 -30 5
-2 5 -3 4 -2 -3z"/>
<path d="M1372 4751 c-11 -7 -11 -9 0 -14 9 -3 15 1 15 9 0 8 -1 14 -1 14 -1
0 -7 -4 -14 -9z"/>
<path d="M1435 4751 c-3 -5 -2 -12 3 -15 5 -3 9 1 9 9 0 17 -3 19 -12 6z"/>
<path d="M1941 4744 c0 -11 3 -14 6 -6 3 7 2 16 -1 19 -3 4 -6 -2 -5 -13z"/>
<path d="M1973 4745 c0 -7 6 -11 14 -8 7 3 13 6 13 8 0 2 -6 5 -13 8 -8 3 -14
-1 -14 -8z"/>
<path d="M2051 4751 c-8 -5 -20 -7 -28 -4 -7 3 -13 1 -13 -5 0 -6 8 -9 18 -7
9 1 22 -1 27 -6 7 -5 11 0 11 12 0 10 0 19 -1 19 0 0 -6 -4 -14 -9z"/>
<path d="M2412 4751 c5 -16 35 -24 43 -11 3 5 -3 7 -12 6 -10 -2 -22 2 -26 8
-6 7 -7 6 -5 -3z"/>
<path d="M2495 4750 c-4 -6 -11 -8 -16 -5 -5 3 -6 -2 -2 -11 5 -13 3 -15 -8
-9 -8 5 -11 4 -6 0 14 -16 36 -14 30 3 -4 9 -2 13 4 9 5 -3 10 0 10 8 0 18 -3
19 -12 5z"/>
<path d="M2753 4745 c0 -8 4 -12 9 -9 5 3 6 10 3 15 -9 13 -12 11 -12 -6z"/>
<path d="M3413 4745 c0 -8 5 -11 10 -8 6 4 8 0 4 -9 -6 -17 16 -19 30 -3 5 4
2 5 -6 0 -11 -6 -13 -4 -7 11 4 10 4 15 0 11 -4 -4 -12 -2 -19 3 -8 7 -12 5
-12 -5z"/>
<path d="M3500 4751 c0 -6 -9 -8 -20 -6 -11 2 -18 0 -15 -5 7 -12 38 -6 43 8
2 7 1 12 -2 12 -3 0 -6 -4 -6 -9z"/>
<path d="M3861 4744 c0 -11 3 -14 6 -6 3 7 2 16 -1 19 -3 4 -6 -2 -5 -13z"/>
<path d="M3891 4744 c0 -11 3 -14 6 -6 3 7 2 16 -1 19 -3 4 -6 -2 -5 -13z"/>
<path d="M3975 4750 c-4 -6 -11 -8 -16 -5 -5 4 -9 2 -9 -3 0 -5 8 -12 18 -14
12 -4 18 1 18 13 0 22 -2 23 -11 9z"/>
<path d="M4068 4753 c7 -3 16 -2 19 1 4 3 -2 6 -13 5 -11 0 -14 -3 -6 -6z"/>
<path d="M4195 4751 c-3 -5 -2 -12 3 -15 5 -3 9 1 9 9 0 17 -3 19 -12 6z"/>
<path d="M1461 4734 c0 -11 3 -14 6 -6 3 7 2 16 -1 19 -3 4 -6 -2 -5 -13z"/>
<path d="M1673 4732 c0 -12 5 -22 9 -22 11 0 10 12 -2 30 -7 12 -9 10 -7 -8z"/>
<path d="M1786 4738 c3 -5 10 -6 15 -3 13 9 11 12 -6 12 -8 0 -12 -4 -9 -9z"/>
<path d="M1840 4740 c0 -5 1 -12 3 -14 1 -2 -7 -14 -18 -27 -11 -13 -13 -19
-6 -12 10 9 20 9 35 2 18 -9 19 -8 5 3 -9 7 -14 23 -13 36 2 12 2 22 -1 22 -3
0 -5 -4 -5 -10z"/>
<path d="M2193 4743 c4 -3 3 -11 -3 -17 -6 -8 -3 -12 9 -12 12 0 17 6 13 18
-2 10 -9 18 -15 18 -6 0 -7 -3 -4 -7z"/>
<path d="M2319 4748 c-6 -22 -5 -39 3 -45 6 -3 8 -1 4 5 -3 5 0 13 6 15 10 4
10 6 0 6 -7 1 -10 6 -7 11 3 6 4 10 1 10 -3 0 -6 -1 -7 -2z"/>
<path d="M2673 4735 c0 -8 4 -12 9 -9 5 3 6 10 3 15 -9 13 -12 11 -12 -6z"/>
<path d="M2721 4736 c-9 -10 -9 -16 -1 -21 6 -4 14 -4 17 -1 4 3 1 6 -7 6 -10
0 -10 3 0 15 7 8 10 15 7 15 -2 0 -10 -6 -16 -14z"/>
<path d="M3093 4735 c0 -7 6 -11 14 -8 7 3 13 6 13 8 0 2 -6 5 -13 8 -8 3 -14
-1 -14 -8z"/>
<path d="M3333 4735 c0 -7 6 -11 14 -8 7 3 13 6 13 8 0 2 -6 5 -13 8 -8 3 -14
-1 -14 -8z"/>
<path d="M3519 4743 c-6 -55 -6 -73 -1 -73 4 0 8 18 8 40 1 22 -1 40 -2 40 -2
0 -4 -3 -5 -7z"/>
<path d="M4239 4748 c-6 -22 -5 -39 3 -45 6 -3 8 -1 4 5 -3 5 0 13 6 15 10 4
10 6 0 6 -7 1 -10 6 -7 11 3 6 4 10 1 10 -3 0 -6 -1 -7 -2z"/>
<path d="M3590 4730 c-11 -7 -11 -10 -2 -10 8 0 10 -5 6 -12 -4 -7 -3 -9 1 -5
7 6 17 37 12 37 -1 0 -9 -5 -17 -10z"/>
<path d="M1356 4722 c-3 -5 1 -9 9 -9 8 0 12 4 9 9 -3 4 -7 8 -9 8 -2 0 -6 -4
-9 -8z"/>
<path d="M1598 4723 c7 -3 16 -2 19 1 4 3 -2 6 -13 5 -11 0 -14 -3 -6 -6z"/>
<path d="M1748 4711 c3 -8 1 -12 -5 -8 -5 3 -10 0 -10 -8 0 -11 4 -12 14 -4 9
8 17 8 26 0 10 -8 14 -7 14 4 0 8 -5 11 -10 8 -6 -4 -8 0 -5 8 4 10 -1 15 -12
15 -11 0 -16 -5 -12 -15z"/>
<path d="M1908 4723 c7 -3 16 -2 19 1 4 3 -2 6 -13 5 -11 0 -14 -3 -6 -6z"/>
<path d="M2117 4713 c3 -7 6 -13 8 -13 2 0 5 6 8 13 3 8 -1 14 -8 14 -7 0 -11
-6 -8 -14z"/>
<path d="M2394 4700 c0 -16 4 -30 7 -30 4 0 6 14 5 30 0 17 -4 30 -7 30 -4 0
-6 -13 -5 -30z"/>
<path d="M2947 4715 c3 -8 9 -12 14 -9 12 7 11 11 -5 17 -10 4 -13 1 -9 -8z"/>
<path d="M4037 4717 c4 -6 0 -8 -9 -5 -8 4 -15 1 -15 -6 0 -18 23 -15 35 4 7
12 7 17 -4 17 -7 0 -10 -5 -7 -10z"/>
<path d="M4310 4720 c0 -5 5 -10 10 -10 6 0 10 5 10 10 0 6 -4 10 -10 10 -5 0
-10 -4 -10 -10z"/>
<path d="M2093 4705 c0 -8 4 -12 9 -9 5 3 6 10 3 15 -9 13 -12 11 -12 -6z"/>
<path d="M2237 4710 c7 -8 23 -15 35 -17 12 -2 19 -1 16 3 -3 3 -12 6 -20 8
-7 1 -20 5 -28 10 -12 7 -13 6 -3 -4z"/>
<path d="M2519 4707 c8 -10 16 -15 19 -12 3 3 15 -3 26 -12 20 -17 20 -17 6 1
-13 18 -13 19 1 14 9 -4 16 -1 16 7 0 9 -6 11 -16 6 -20 -9 -32 -8 -51 4 -13
8 -13 7 -1 -8z"/>
<path d="M2693 4707 c0 -9 5 -13 10 -10 6 4 8 -1 4 -11 -4 -9 -3 -15 2 -11 5
3 11 0 13 -7 3 -7 7 -4 12 7 4 11 4 16 0 13 -3 -4 -14 2 -24 14 -13 17 -17 18
-17 5z"/>
<path d="M2834 4700 c0 -13 4 -16 10 -10 7 7 7 13 0 20 -6 6 -10 3 -10 -10z"/>
<path d="M2862 4700 c0 -14 2 -19 5 -12 2 6 2 18 0 25 -3 6 -5 1 -5 -13z"/>
<path d="M3300 4709 c0 -5 -6 -7 -12 -3 -7 4 -9 3 -5 -1 13 -15 36 -14 30 1
-6 17 -13 18 -13 3z"/>
<path d="M4157 4710 c7 -8 23 -15 35 -17 12 -2 19 -1 16 3 -3 3 -12 6 -20 8
-7 1 -20 5 -28 10 -12 7 -13 6 -3 -4z"/>
<path d="M1400 4700 c18 -12 30 -13 30 -2 0 4 -10 9 -22 9 -18 2 -20 0 -8 -7z"/>
<path d="M1584 4702 c4 -3 14 -7 22 -8 9 -1 13 0 10 4 -4 3 -14 7 -22 8 -9 1
-13 0 -10 -4z"/>
<path d="M1960 4700 c18 -12 30 -13 30 -2 0 4 -10 9 -22 9 -18 2 -20 0 -8 -7z"/>
<path d="M2167 4699 c7 -7 15 -10 18 -7 3 3 -2 9 -12 12 -14 6 -15 5 -6 -5z"/>
<path d="M2770 4698 c0 -4 4 -8 9 -8 6 0 12 4 15 8 3 5 -1 9 -9 9 -8 0 -15 -4
-15 -9z"/>
<path d="M2997 4698 c-7 -5 0 -6 17 -4 16 3 31 7 33 10 8 8 -37 2 -50 -6z"/>
<path d="M3255 4701 c-3 -5 -2 -12 3 -15 5 -3 9 1 9 9 0 17 -3 19 -12 6z"/>
<path d="M3370 4700 c0 -5 5 -10 10 -10 6 0 10 5 10 10 0 6 -4 10 -10 10 -5 0
-10 -4 -10 -10z"/>
<path d="M3637 4698 c-7 -5 0 -6 17 -4 16 3 31 7 33 10 8 8 -37 2 -50 -6z"/>
<path d="M3816 4702 c-3 -5 1 -9 9 -9 8 0 12 4 9 9 -3 4 -7 8 -9 8 -2 0 -6 -4
-9 -8z"/>
<path d="M3880 4700 c18 -12 30 -13 30 -2 0 4 -10 9 -22 9 -18 2 -20 0 -8 -7z"/>
<path d="M1347 4686 c-4 -9 -3 -15 2 -11 5 3 11 0 13 -7 3 -7 7 -5 11 6 4 9 3
15 -2 11 -5 -3 -11 0 -13 7 -3 7 -7 5 -11 -6z"/>
<path d="M1655 4690 c-3 -6 1 -7 9 -4 18 7 21 14 7 14 -6 0 -13 -4 -16 -10z"/>
<path d="M2467 4686 c-4 -9 -3 -15 2 -11 5 3 11 0 13 -7 3 -7 7 -5 11 6 4 9 3
15 -2 11 -5 -3 -11 0 -13 7 -3 7 -7 5 -11 -6z"/>
<path d="M2633 4685 c0 -8 4 -15 9 -15 4 0 8 4 8 9 0 6 -4 12 -8 15 -5 3 -9
-1 -9 -9z"/>
<path d="M3116 4687 c3 -10 9 -15 12 -12 3 3 0 11 -7 18 -10 9 -11 8 -5 -6z"/>
<path d="M3227 4687 c-3 -8 1 -14 8 -14 7 0 11 6 8 14 -3 7 -6 13 -8 13 -2 0
-5 -6 -8 -13z"/>
<path d="M3432 4691 c-11 -6 -9 -9 6 -13 15 -4 19 -2 15 8 -6 16 -4 16 -21 5z"/>
<path d="M3756 4687 c3 -10 9 -15 12 -12 3 3 0 11 -7 18 -10 9 -11 8 -5 -6z"/>
<path d="M1271 4683 c4 -22 -2 -43 -12 -43 -5 0 -8 3 -5 8 2 4 -15 7 -40 7
-24 0 -44 -2 -44 -5 0 -10 -55 -5 -62 5 -5 6 -8 5 -8 -2 0 -9 -7 -10 -25 -3
-14 5 -25 6 -25 2 0 -11 -54 -9 -62 3 -5 6 -8 6 -8 -2 0 -11 -30 -10 -49 2 -5
3 -12 1 -15 -4 -3 -4 -19 -7 -36 -5 -33 4 -34 2 -21 -24 5 -9 13 -28 19 -42 5
-14 17 -41 25 -60 9 -19 25 -60 37 -90 12 -30 27 -66 33 -80 5 -14 10 -28 9
-32 -1 -5 2 -8 8 -8 5 0 10 -6 10 -13 0 -16 69 -189 81 -201 5 -6 9 -15 9 -22
0 -6 8 -29 17 -50 9 -22 16 -42 15 -46 -1 -5 2 -8 8 -8 5 0 10 -6 10 -14 0 -7
8 -31 17 -52 9 -22 17 -41 18 -44 1 -3 7 -17 13 -32 6 -15 27 -67 47 -115 20
-48 40 -97 44 -108 5 -11 16 -36 24 -55 44 -103 85 -210 79 -210 -4 0 -2 -4 5
-8 6 -4 18 -25 26 -47 45 -120 62 -160 69 -163 4 -2 8 -10 8 -18 0 -7 11 -38
24 -69 14 -30 22 -55 18 -55 -4 0 -2 -4 3 -8 10 -7 79 -168 117 -272 11 -30
25 -58 31 -62 7 -4 8 -8 3 -8 -5 0 -3 -7 4 -15 7 -8 10 -15 6 -15 -4 0 2 -17
13 -39 11 -21 17 -41 14 -45 -4 -3 -1 -6 5 -6 7 0 12 -8 12 -17 0 -10 12 -40
25 -68 14 -27 25 -53 25 -56 0 -4 8 -24 17 -45 9 -22 16 -42 15 -46 -1 -5 3
-8 9 -8 5 0 8 -4 4 -9 -3 -5 -1 -12 3 -15 5 -3 15 -26 22 -51 7 -25 17 -45 22
-45 6 0 8 -7 4 -15 -3 -8 -2 -15 2 -15 4 0 16 -24 26 -52 18 -51 36 -96 77
-186 10 -23 19 -49 19 -57 0 -8 4 -15 8 -15 5 0 9 -6 9 -12 1 -7 27 -74 58
-148 31 -74 73 -175 93 -225 19 -49 39 -91 43 -93 4 -2 5 -10 2 -18 -3 -8 1
-14 8 -14 7 0 9 -3 6 -7 -4 -3 -3 -11 1 -17 5 -6 17 -33 27 -61 10 -27 22 -54
26 -60 5 -5 9 -15 9 -21 0 -7 13 -41 29 -76 15 -35 68 -162 117 -283 48 -121
92 -223 97 -226 5 -3 8 -9 7 -13 -2 -8 14 -53 40 -111 10 -22 33 -78 51 -125
19 -47 36 -87 39 -90 3 -3 6 -13 8 -22 1 -9 9 -30 17 -45 8 -15 15 -34 15 -40
0 -7 4 -13 10 -13 5 0 9 -3 8 -7 -3 -11 25 -83 32 -83 10 0 32 17 32 26 1 11
20 59 64 159 9 22 16 44 15 49 -1 5 2 12 6 15 5 3 17 29 27 56 10 28 27 68 37
90 9 23 21 53 24 68 4 15 11 27 15 27 4 0 11 7 14 16 4 10 2 13 -7 8 -9 -6 -9
-5 -1 7 7 8 24 43 39 79 15 36 32 76 38 90 6 14 11 28 12 33 2 4 4 9 5 12 1 3
3 8 5 13 3 13 35 86 55 128 11 23 20 44 20 48 0 6 111 278 130 321 19 40 33
80 32 88 -1 4 3 7 9 7 5 0 7 5 4 10 -3 6 -1 10 4 10 6 0 10 3 9 8 -5 13 25 91
33 87 4 -3 6 3 5 12 -2 10 0 20 3 23 4 3 22 43 40 90 18 47 44 108 57 137 13
28 24 55 24 58 0 4 6 21 14 38 39 87 299 724 299 735 0 6 4 12 9 12 5 0 6 5 3
10 -3 6 -1 10 4 10 6 0 10 3 9 8 -1 8 5 24 33 89 11 23 19 44 19 46 0 3 10 26
22 53 12 27 23 54 24 60 1 6 16 42 33 81 17 39 31 75 31 80 0 4 8 24 19 43 10
19 22 46 26 60 4 14 15 43 26 65 10 22 43 103 74 180 31 77 65 158 75 180 10
22 38 90 61 150 24 61 47 113 52 116 4 3 7 10 6 15 -1 5 8 32 21 59 12 28 23
56 23 63 0 6 4 12 9 12 4 0 8 9 8 19 0 11 5 23 10 26 6 4 8 10 5 15 -3 5 2 16
11 24 8 9 13 16 10 16 -3 0 4 21 15 48 35 79 42 97 44 108 2 5 14 36 29 67 14
31 28 68 32 82 3 14 10 28 15 31 5 3 7 10 4 15 -4 5 -1 9 5 9 6 0 9 4 5 9 -3
5 -1 12 3 15 5 3 15 26 22 51 7 25 17 45 21 45 5 0 8 3 7 8 0 4 2 16 7 27 4
11 14 34 20 51 12 30 5 68 -9 46 -6 -10 -47 -8 -65 2 -5 4 -12 2 -15 -2 -6
-10 -48 -8 -65 2 -5 4 -12 2 -15 -3 -4 -6 -18 -6 -36 -1 -17 5 -30 5 -30 1 0
-11 -54 -7 -62 4 -5 6 -8 6 -8 -1 0 -8 -13 -9 -40 -4 -22 4 -40 5 -40 2 0 -2
-8 2 -17 9 -11 10 -14 10 -9 2 4 -8 1 -13 -9 -13 -9 0 -14 4 -11 8 3 4 -10 6
-27 4 -18 -2 -43 -4 -57 -4 -14 0 -31 -5 -38 -10 -10 -8 -11 -6 -5 8 6 17 5
17 -10 5 -14 -11 -20 -11 -34 0 -15 12 -16 12 -10 -3 4 -12 2 -15 -8 -11 -8 3
-12 9 -9 14 3 5 -2 6 -11 2 -10 -3 -21 0 -27 8 -8 11 -9 10 -4 -3 3 -10 0 -20
-6 -24 -6 -4 -8 -3 -4 4 3 6 2 13 -4 17 -5 3 -10 -1 -10 -9 0 -9 -5 -16 -11
-16 -5 0 -8 4 -5 9 3 4 -19 7 -49 5 -38 -2 -55 0 -55 9 0 9 -2 9 -8 0 -10 -16
-118 -12 -114 5 1 8 -2 11 -8 7 -6 -3 -7 -12 -3 -18 4 -7 -2 -5 -12 3 -11 9
-16 10 -11 3 4 -8 1 -13 -9 -13 -10 0 -13 5 -9 13 6 9 5 9 -7 0 -12 -10 -18
-10 -29 0 -10 9 -11 9 -6 0 4 -8 1 -13 -8 -13 -9 0 -16 6 -16 13 0 7 -3 8 -8
2 -11 -16 -44 -18 -53 -3 -7 10 -9 10 -9 -2 0 -13 -1 -13 -10 0 -6 10 -10 11
-10 3 0 -9 -11 -11 -35 -8 -21 2 -33 0 -30 -5 3 -5 -9 -3 -27 4 -23 10 -38 11
-51 4 -13 -6 -23 -5 -35 4 -13 11 -15 11 -9 -4 4 -12 2 -15 -8 -11 -8 3 -12 9
-9 14 3 5 -2 6 -11 2 -10 -3 -21 0 -27 8 -8 11 -9 10 -4 -3 3 -10 0 -20 -6
-24 -6 -4 -8 -3 -4 4 3 6 2 13 -4 17 -5 3 -10 -1 -10 -9 0 -9 -5 -16 -11 -16
-5 0 -8 4 -5 8 2 4 -30 8 -72 7 -59 0 -76 3 -74 13 1 8 -2 11 -8 7 -6 -3 -7
-12 -3 -18 4 -7 -2 -5 -12 3 -11 9 -16 10 -11 3 4 -7 2 -13 -3 -13 -6 0 -11 6
-11 13 0 8 -3 8 -9 -2 -8 -13 -12 -13 -27 0 -11 9 -15 9 -10 2 4 -8 1 -13 -8
-13 -9 0 -16 6 -16 13 0 7 -3 8 -8 2 -11 -16 -44 -18 -53 -3 -7 10 -9 10 -9
-2 0 -13 -1 -13 -10 0 -6 10 -10 11 -10 3 0 -7 -6 -13 -14 -13 -8 0 -17 6 -19
13 -4 10 -6 10 -6 0 -1 -7 -8 -13 -16 -13 -8 0 -15 6 -15 13 0 9 -2 9 -8 0 -9
-15 -72 -14 -72 1 0 6 -4 5 -9 -3 -6 -8 -16 -11 -31 -6 -17 5 -21 4 -15 -5 6
-9 4 -11 -5 -5 -7 4 -27 8 -44 9 -17 1 -37 5 -45 10 -9 6 -12 5 -7 -2 8 -14
-76 -12 -86 3 -5 6 -8 5 -8 -4 0 -9 -8 -11 -26 -7 -18 5 -24 3 -19 -5 6 -8 2
-8 -12 0 -11 6 -23 8 -26 4 -3 -3 -14 -2 -24 2 -28 12 -44 14 -37 4 3 -5 -2
-9 -11 -9 -10 0 -13 5 -9 13 6 9 5 9 -7 0 -12 -10 -18 -10 -29 0 -10 10 -11 9
-5 -1 6 -11 -1 -12 -31 -7 -43 8 -43 8 -99 0 -31 -4 -37 -3 -25 6 12 9 12 10
-4 5 -10 -4 -25 -1 -32 5 -12 9 -13 9 -9 -4 4 -8 1 -18 -6 -23 -7 -4 -10 -3
-5 4 3 6 2 13 -4 17 -5 3 -10 -1 -10 -9 0 -9 -5 -16 -11 -16 -5 0 -8 4 -5 9 3
4 -19 7 -49 5 -38 -2 -55 0 -55 9 0 8 -3 9 -8 1 -13 -19 -42 -25 -49 -9 -5 13
-7 13 -19 -2 -13 -17 -14 -17 -8 2 6 16 5 18 -7 8 -7 -7 -21 -13 -30 -13 -10
0 -19 6 -22 13 -3 9 -8 9 -18 -2 -12 -12 -12 -13 0 -6 10 6 12 4 6 -4 -5 -9
-11 -9 -17 -3 -6 6 -17 8 -25 5 -8 -3 -19 0 -24 8 -7 12 -10 12 -21 0 -11 -11
-11 -13 1 -6 10 5 12 4 7 -4 -4 -6 -13 -8 -19 -4 -7 4 -20 6 -31 4 -10 -1 -16
1 -13 7 4 5 0 9 -8 9 -8 0 -12 -3 -10 -7 7 -12 -159 -8 -174 4 -12 9 -13 8 -8
-7 5 -14 3 -16 -11 -9 -9 5 -23 7 -31 4 -7 -2 -17 2 -22 9 -7 12 -9 12 -9 0 0
-9 -8 -11 -26 -7 -18 5 -24 3 -19 -5 5 -8 2 -8 -11 -1 -11 5 -25 7 -33 4 -9
-3 -11 1 -6 17 4 12 2 21 -4 21 -6 0 -10 -3 -10 -7z"/>
<path d="M2306 4678 c3 -5 10 -6 15 -3 13 9 11 12 -6 12 -8 0 -12 -4 -9 -9z"/>
<path d="M2956 4678 c3 -5 10 -6 15 -3 13 9 11 12 -6 12 -8 0 -12 -4 -9 -9z"/>
<path d="M3836 4681 c-17 -6 -17 -8 -4 -14 10 -3 19 0 22 9 3 8 4 14 3 13 -1
0 -11 -4 -21 -8z"/>
<path d="M4226 4678 c3 -5 10 -6 15 -3 13 9 11 12 -6 12 -8 0 -12 -4 -9 -9z"/>
<path d="M1485 4670 c-16 -7 -17 -9 -3 -9 9 -1 20 4 23 9 7 11 7 11 -20 0z"/>
<path d="M1588 4673 c7 -3 16 -2 19 1 4 3 -2 6 -13 5 -11 0 -14 -3 -6 -6z"/>
<path d="M2028 4673 c7 -3 16 -2 19 1 4 3 -2 6 -13 5 -11 0 -14 -3 -6 -6z"/>
<path d="M3188 4673 c7 -3 16 -2 19 1 4 3 -2 6 -13 5 -11 0 -14 -3 -6 -6z"/>
<path d="M3948 4673 c7 -3 16 -2 19 1 4 3 -2 6 -13 5 -11 0 -14 -3 -6 -6z"/>
</g>
</svg>
